<svg xmlns="http://www.w3.org/2000/svg" xmlns:xlink="http://www.w3.org/1999/xlink" width="471.13202" height="118.426" viewBox="0 0 471.13202 118.426">
  <defs>
    <style>
      .a, .c, .l {
        fill: none;
      }

      .b {
        clip-path: url(#a);
      }

      .c {
        stroke: #a7a9ac;
        stroke-width: 1.974px;
      }

      .d {
        fill: #d1d3d4;
      }

      .e {
        fill: #e6e7e8;
      }

      .f {
        fill: #a7a9ac;
      }

      .g {
        fill: #00a1af;
      }

      .h {
        fill: #ffb819;
      }

      .i {
        fill: #799900;
      }

      .j {
        fill: #ff7f2f;
      }

      .k {
        fill: #fff;
      }

      .l {
        stroke: #fff;
        stroke-width: 2.431px;
      }

      .m {
        clip-path: url(#e);
      }

      .n {
        fill: #939598;
      }

      .o {
        fill: #d13239;
      }

      .p {
        fill: #7d576b;
      }

      .q {
        fill: #f5edeb;
      }

      .r {
        fill: #e9ddc5;
      }

      .s {
        fill: #f384a5;
      }

      .t {
        fill: #37353a;
      }

      .u {
        fill: #58595b;
      }

      .v {
        fill: #bcbec0;
      }

      .w {
        fill: #f1f2f2;
      }
    </style>
    <clipPath id="a">
      <rect class="a" x="-291.5" y="-247.5" width="792" height="432"/>
    </clipPath>
    <clipPath id="e">
      <rect class="a" x="215.465" y="29.786" width="53.03403" height="40.29601"/>
    </clipPath>
  </defs>
  <title>footer-artwork</title>
  <g class="b">
    <path class="c" d="M286.84839,95.1837s2.559,11.799,12.368,13.647c5.921,1.116,13.221-.142,16.206.853a4.17976,4.17976,0,0,1,2.701,2.559"/>
  </g>
  <rect class="d" x="227.21399" y="95.659" width="33.46899" height="21.204"/>
  <polygon class="e" points="220.388 113.863 220.388 113.863 220.388 117.848 266.809 117.848 266.809 113.863 220.388 113.863"/>
  <g class="b">
    <path class="e" d="M169.6889.6248s-9.962,0-9.962,9.962v77.166s0,9.961,9.962,9.961h144.586s9.962,0,9.962-9.961v-77.166s0-9.962-9.962-9.962Z"/>
  </g>
  <rect class="f" x="168.733" y="7.92" width="146.49802" height="81.346"/>
  <rect class="g" x="131.61398" y="46.13901" width="11.31201" height="71.709"/>
  <rect class="h" x="396.453" y="83.90199" width="65.36499" height="11.312"/>
  <rect class="h" x="120.302" y="34.13699" width="11.31201" height="83.71"/>
  <rect class="g" x="387.422" y="95.214" width="83.71002" height="11.312"/>
  <rect class="i" x="108.98999" y="42.44299" width="11.31201" height="75.405"/>
  <rect class="j" x="392.75702" y="106.526" width="71.64801" height="11.312"/>
  <g class="b">
    <path class="k" d="M133.93921,85.033a3.33049,3.33049,0,1,0,3.331-3.331,3.3312,3.3312,0,0,0-3.331,3.331"/>
    <path class="k" d="M429.66089,92.8893a3.3305,3.3305,0,1,0-3.33105-3.331,3.3312,3.3312,0,0,0,3.33105,3.331"/>
    <path class="k" d="M111.3154,52.02831a3.33049,3.33049,0,1,0,3.331-3.331,3.33121,3.33121,0,0,0-3.331,3.331"/>
    <path class="k" d="M401.774,115.5129a3.3305,3.3305,0,1,0-3.33105-3.331,3.3312,3.3312,0,0,0,3.33105,3.331"/>
  </g>
  <rect class="k" x="133.939" y="56.222" width="6.66101" height="2.1"/>
  <rect class="k" x="404.31598" y="86.228" width="2.09998" height="6.661"/>
  <rect class="k" x="133.939" y="112.572" width="6.66101" height="2.1"/>
  <rect class="k" x="457.20001" y="86.228" width="2.09998" height="6.661"/>
  <rect class="k" x="123.08099" y="112.572" width="6.66101" height="2.1"/>
  <rect class="k" x="465.85602" y="97.086" width="2.09998" height="6.661"/>
  <rect class="k" x="133.939" y="51.48599" width="6.66101" height="2.10001"/>
  <rect class="k" x="399.58099" y="86.228" width="2.09998" height="6.661"/>
  <rect class="k" x="133.939" y="107.836" width="6.66101" height="2.1"/>
  <rect class="k" x="452.46399" y="86.228" width="2.09998" height="6.661"/>
  <rect class="k" x="123.84299" y="39.38901" width="4.23001" height="60.583"/>
  <rect class="k" x="392.67297" y="98.755" width="60.58301" height="4.23"/>
  <line class="l" x1="114.646" y1="61.2005" x2="114.646" y2="112.2345"/>
  <line class="l" x1="414.48462" y1="112.1823" x2="459.0036" y2="112.1823"/>
  <g class="b">
    <g class="m">
      <path class="n" d="M218.16141,44.6703a2.92414,2.92414,0,0,0,4.01395.214,31.80626,31.80626,0,0,1,39.93005-.428,2.74465,2.74465,0,0,0,4.014-.427l.634-.641a2.89184,2.89184,0,0,0-.423-4.272,39.207,39.207,0,0,0-24.084-8.331,38.57361,38.57361,0,0,0-24.719,8.972,3.12069,3.12069,0,0,0-.211,4.486Z"/>
      <path class="n" d="M259.176,46.45239a27.84923,27.84923,0,0,0-16.71906-5.361,28.67884,28.67884,0,0,0-17.355,5.79,2.98859,2.98859,0,0,0-.423,4.503l.635.643a3.17144,3.17144,0,0,0,4.021.429,21.60571,21.60571,0,0,1,13.12195-4.503,21.89229,21.89229,0,0,1,12.698,4.074,3.17153,3.17153,0,0,0,4.02106-.429l.63495-.643a3.01734,3.01734,0,0,0-.63495-4.503"/>
      <path class="n" d="M251.59692,54.61681a17.99779,17.99779,0,0,0-8.929-2.588,18.3862,18.3862,0,0,0-9.566,2.804,3.25692,3.25692,0,0,0-.638,4.745l.638.647a2.8969,2.8969,0,0,0,3.826.431,10.585,10.585,0,0,1,5.74-1.725,9.03666,9.03666,0,0,1,5.315,1.509,3.214,3.214,0,0,0,3.827-.647l.637-.647a3.08072,3.08072,0,0,0-.85-4.529"/>
      <path class="n" d="M242.45508,62.1242a3.479,3.479,0,1,1-3.479,3.479,3.47819,3.47819,0,0,1,3.479-3.479"/>
    </g>
    <path class="o" d="M12.4874,95.5626a17.56425,17.56425,0,0,0-6.08-.258c-10.511,1.809-4.665,14.858-2.249,19.617,1.084,2.134,2.208,2.746,3.252,2.592s1.767-1.081,2.288-.871c2.734,1.098,2.718,1.148,5.578,0,.521-.21,1.244.717,2.288.871s2.168-.458,3.252-2.592c2.416-4.759,8.262-17.808-2.249-19.617a17.564,17.564,0,0,0-6.08.258"/>
    <path class="p" d="M11.76889,94.9426c.573-3.424,2.082-6.575,3.094-6.508.359.024.55.595.359.694-1.51.781-2.303,3.68-2.477,5.899-.086.017-.172.034-.257.052q-.35252-.07349-.719-.137"/>
    <path class="i" d="M12.95441,89.6996c-1.499-4.947-9.694-2.695-10.53-.669,1.854,2.064,8.713,2.938,10.607.991-2.332-1.093-6.63-1.323-8.623-1.28a18.70166,18.70166,0,0,1,8.546.958"/>
    <path class="q" d="M17.8732,96.2845c7.469.346,5.267,10.24,3.31,13.009.629-6.06.41-11.323-3.31-13.009"/>
  </g>
  <polygon class="i" points="350.455 78.227 349.368 77.4 349.193 78.727 348.109 77.9 347.932 79.227 346.847 78.4 346.847 78.401 346.672 79.727 354.86 100.192 358.643 98.692 350.455 78.226 350.455 78.227"/>
  <g class="b">
    <path class="r" d="M347.20288,73.6187a2.64928,2.64928,0,0,1-.754.357,3.25082,3.25082,0,0,1-.879.278,47.9259,47.9259,0,0,0,.825,4.819l.277.654.175-1.326v-.001l1.086.827.175-1.327,1.086.827.175-1.327,1.086.827-.001-.001-.276-.654c-.281-.665-1.744-2.249-2.975-3.953"/>
    <path class="s" d="M354.8606,100.1919l.844,1.997c.606,1.431,1.498,1.204,2.543.789,1.044-.414,1.845-.858,1.24-2.289l-.845-1.997Z"/>
    <path class="t" d="M346.45209,73.9746a3.63923,3.63923,0,0,0,.751-.356,27.92643,27.92643,0,0,1-2.069-2.761s.289,1.657.436,3.396a4.49816,4.49816,0,0,0,.882-.279"/>
  </g>
  <polygon class="k" points="355.009 100.542 358.791 99.042 358.495 98.341 354.713 99.842 355.009 100.542"/>
  <polygon class="h" points="357.213 98.85 349.158 78.7 348.108 77.9 347.933 79.227 355.973 99.342 357.213 98.85"/>
  <polygon class="o" points="358.823 98.652 359.294 99.932 359.294 99.933 360.155 98.908 360.626 100.188 361.487 99.163 361.958 100.444 361.959 100.444 362.819 99.419 366.909 77.759 362.913 76.992 358.823 98.652"/>
  <g class="b">
    <path class="r" d="M359.08911,104.2854a2.626,2.626,0,0,1,.82794.104,3.21652,3.21652,0,0,1,.89105.238,47.86,47.86,0,0,0,1.892-4.508l.119-.7-.861,1.024-.471-1.28-.861,1.025-.471-1.281-.861,1.025-.471-1.28h-.001l-.118.7c-.12.712.262,2.835.385,4.933"/>
    <path class="s" d="M366.90839,77.7593l.361-2.138c.258-1.532-.617-1.82-1.72-2.032s-2.018-.267-2.276,1.265l-.361,2.138Z"/>
    <path class="t" d="M359.91382,104.3887a3.63224,3.63224,0,0,0-.825-.103,28.14614,28.14614,0,0,1,.262,3.44s.646-1.553,1.457-3.098a4.4961,4.4961,0,0,0-.894-.239"/>
  </g>
  <polygon class="k" points="366.972 77.384 362.976 76.617 362.849 77.367 366.845 78.134 366.972 77.384"/>
  <polygon class="h" points="364.204 77.627 360.171 98.95 360.626 100.188 360.627 100.188 361.487 99.163 365.514 77.879 364.204 77.627"/>
  <rect class="u" x="346.34497" y="89.531" width="20.89001" height="28.317"/>
  <rect class="u" x="34.90167" y="66.75518" width="63.81484" height="47.78565" transform="matrix(0.99999, -0.0052, 0.0052, 0.99999, -0.47069, 0.3488)"/>
  <g class="b">
    <path class="v" d="M66.59479,66.4621a36.47733,36.47733,0,0,1,29.88-.156c.087,16.642.172,28.916.258,45.557a37.1747,37.1747,0,0,0-30.177.197,35.7967,35.7967,0,0,0-29.586.277c-.088-16.64-.169-29.079-.256-45.72a36.47971,36.47971,0,0,1,29.881-.155"/>
    <path class="w" d="M66.58261,64.1636a36.48126,36.48126,0,0,1,29.88-.155c.086,16.64.148,28.3.233,44.941a36.475,36.475,0,0,0-29.879.155,36.47963,36.47963,0,0,0-29.881.155c-.086-16.64-.147-28.3-.234-44.941a36.48363,36.48363,0,0,1,29.881-.155"/>
    <path class="d" d="M69.64319,69.4652c.198.439,1.01.501,1.831.194a29.26153,29.26153,0,0,1,20.272-.106c.824.299,1.636.228,1.829-.212.192-.439-.352-1.102-1.235-1.422a31.0019,31.0019,0,0,0-21.477.112c-.879.329-1.417.997-1.22,1.434"/>
    <path class="d" d="M69.67111,74.7652c.198.438,1.009.501,1.831.194a29.25589,29.25589,0,0,1,20.272-.106c.824.298,1.636.228,1.828-.213.192-.439-.351-1.101-1.234-1.421a31.00185,31.00185,0,0,0-21.477.111c-.879.33-1.418.998-1.22,1.435"/>
    <path class="d" d="M69.6987,80.0643c.198.439,1.01.501,1.83.194a29.26437,29.26437,0,0,1,20.273-.105c.824.298,1.636.227,1.828-.213.193-.439-.352-1.102-1.234-1.422a31.00187,31.00187,0,0,0-21.477.112c-.88.329-1.418.997-1.22,1.434"/>
    <path class="d" d="M69.72659,85.3643c.198.439,1.009.501,1.83.194a29.25869,29.25869,0,0,1,20.273-.105c.824.298,1.636.227,1.828-.213s-.352-1.102-1.235-1.422a31.00751,31.00751,0,0,0-21.477.111c-.879.33-1.417.998-1.219,1.435"/>
    <path class="d" d="M69.7536,90.6639c.199.439,1.009.501,1.831.194a29.2531,29.2531,0,0,1,20.271-.106c.825.299,1.637.228,1.83-.212.192-.439-.353-1.102-1.234-1.422a31.00464,31.00464,0,0,0-21.478.111c-.878.33-1.418.998-1.22,1.435"/>
    <path class="d" d="M69.78049,95.9638c.199.438,1.011.501,1.831.194a29.2643,29.2643,0,0,1,20.273-.106c.824.299,1.636.228,1.828-.213.191-.439-.352-1.101-1.234-1.421a30.9905,30.9905,0,0,0-21.477.112c-.879.329-1.418.997-1.221,1.434"/>
    <path class="d" d="M69.8089,101.2638c.198.438,1.01.5,1.83.193a29.26437,29.26437,0,0,1,20.273-.105c.824.299,1.636.228,1.828-.213.192-.439-.352-1.101-1.235-1.422a31.00183,31.00183,0,0,0-21.477.112c-.879.329-1.416.998-1.219,1.435"/>
    <path class="d" d="M39.52649,69.622c.198.439,1.009.5,1.831.194a29.25878,29.25878,0,0,1,20.271-.106c.826.299,1.636.227,1.829-.212.192-.44-.352-1.102-1.234-1.422a30.99883,30.99883,0,0,0-21.478.111c-.878.33-1.416.998-1.219,1.435"/>
    <path class="d" d="M39.554,74.9214c.198.438,1.009.501,1.83.194a29.2587,29.2587,0,0,1,20.273-.106c.824.299,1.636.228,1.828-.213.192-.439-.351-1.1-1.235-1.421a30.99616,30.99616,0,0,0-21.477.112c-.878.329-1.417.997-1.219,1.434"/>
    <path class="d" d="M39.58151,80.2209c.198.439,1.01.501,1.83.194a29.25869,29.25869,0,0,1,20.273-.105c.824.298,1.635.227,1.828-.213.192-.44-.353-1.102-1.234-1.422a31.00466,31.00466,0,0,0-21.478.112c-.877.33-1.416.998-1.219,1.434"/>
    <path class="d" d="M39.6088,85.5212c.198.438,1.009.501,1.831.193a29.2587,29.2587,0,0,1,20.271-.105c.825.298,1.637.228,1.829-.213.193-.438-.351-1.101-1.234-1.421a31.00462,31.00462,0,0,0-21.478.111c-.878.33-1.417.998-1.219,1.435"/>
    <path class="d" d="M39.63681,90.8204c.198.438,1.01.501,1.829.193a29.27011,29.27011,0,0,1,20.273-.105c.825.299,1.637.228,1.829-.212.192-.439-.352-1.102-1.234-1.422a30.99616,30.99616,0,0,0-21.477.112c-.879.329-1.418.997-1.22,1.434"/>
    <path class="d" d="M39.66351,96.12c.198.439,1.01.501,1.831.194a29.2586,29.2586,0,0,1,20.273-.105c.823.298,1.636.227,1.827-.213.193-.439-.351-1.102-1.234-1.422a31.00193,31.00193,0,0,0-21.477.112c-.879.329-1.416.998-1.22,1.434"/>
    <path class="d" d="M39.69171,101.4202c.198.438,1.009.501,1.83.193a29.26155,29.26155,0,0,1,20.272-.105c.824.298,1.636.228,1.829-.213.192-.439-.352-1.101-1.234-1.421a31.00462,31.00462,0,0,0-21.478.111c-.878.33-1.417.998-1.219,1.435"/>
  </g>
  <rect class="u" x="34.90167" y="70.47468" width="63.81484" height="47.78565" transform="matrix(0.99999, -0.0052, 0.0052, 0.99999, -0.49005, 0.34885)"/>
  <g class="b">
    <path class="v" d="M66.59479,70.1816a36.47733,36.47733,0,0,1,29.88-.156c.087,16.642.172,28.916.258,45.557a37.1747,37.1747,0,0,0-30.177.197,35.7967,35.7967,0,0,0-29.586.277c-.088-16.64-.169-29.079-.256-45.72a36.47971,36.47971,0,0,1,29.881-.155"/>
    <path class="w" d="M66.58261,67.8831a36.48126,36.48126,0,0,1,29.88-.155c.086,16.64.148,28.3.233,44.941a36.475,36.475,0,0,0-29.879.155,36.47963,36.47963,0,0,0-29.881.155c-.086-16.64-.147-28.3-.234-44.941a36.48363,36.48363,0,0,1,29.881-.155"/>
    <path class="d" d="M69.64319,73.1847c.198.439,1.01.501,1.831.194a29.26153,29.26153,0,0,1,20.272-.106c.824.299,1.636.228,1.829-.212.192-.439-.352-1.102-1.235-1.422a31.0019,31.0019,0,0,0-21.477.112c-.879.329-1.417.997-1.22,1.434"/>
    <path class="d" d="M69.67111,78.4847c.198.438,1.009.501,1.831.194a29.25589,29.25589,0,0,1,20.272-.106c.824.298,1.636.228,1.828-.213.192-.439-.351-1.101-1.234-1.421a31.00185,31.00185,0,0,0-21.477.111c-.879.33-1.418.998-1.22,1.435"/>
    <path class="d" d="M69.6987,83.7839c.198.439,1.01.501,1.83.194a29.26437,29.26437,0,0,1,20.273-.105c.824.298,1.636.227,1.828-.213.193-.439-.352-1.102-1.234-1.422a31.00187,31.00187,0,0,0-21.477.112c-.88.329-1.418.997-1.22,1.434"/>
    <path class="d" d="M69.72659,89.0838c.198.439,1.009.501,1.83.194a29.25869,29.25869,0,0,1,20.273-.105c.824.298,1.636.227,1.828-.213s-.352-1.102-1.235-1.422a31.00751,31.00751,0,0,0-21.477.111c-.879.33-1.417.998-1.219,1.435"/>
    <path class="d" d="M69.7536,94.3834c.199.439,1.009.501,1.831.194a29.2531,29.2531,0,0,1,20.271-.106c.825.299,1.637.228,1.83-.212.192-.439-.353-1.102-1.234-1.422a31.00464,31.00464,0,0,0-21.478.111c-.878.33-1.418.998-1.22,1.435"/>
    <path class="d" d="M69.78049,99.6833c.199.438,1.011.501,1.831.194a29.2643,29.2643,0,0,1,20.273-.106c.824.299,1.636.228,1.828-.213.191-.439-.352-1.101-1.234-1.421a30.9905,30.9905,0,0,0-21.477.112c-.879.329-1.418.997-1.221,1.434"/>
    <path class="d" d="M69.8089,104.9833c.198.438,1.01.5,1.83.193a29.26437,29.26437,0,0,1,20.273-.105c.824.299,1.636.228,1.828-.213.192-.439-.352-1.101-1.235-1.422a31.00183,31.00183,0,0,0-21.477.112c-.879.329-1.416.998-1.219,1.435"/>
    <path class="d" d="M39.52649,73.3415c.198.439,1.009.5,1.831.194a29.25878,29.25878,0,0,1,20.271-.106c.826.299,1.636.227,1.829-.212.192-.44-.352-1.102-1.234-1.422a30.99883,30.99883,0,0,0-21.478.111c-.878.33-1.416.998-1.219,1.435"/>
    <path class="d" d="M39.554,78.6409c.198.438,1.009.501,1.83.194a29.2587,29.2587,0,0,1,20.273-.106c.824.299,1.636.228,1.828-.213.192-.439-.351-1.1-1.235-1.421a30.99616,30.99616,0,0,0-21.477.112c-.878.329-1.417.997-1.219,1.434"/>
    <path class="d" d="M39.58151,83.9404c.198.439,1.01.501,1.83.194a29.25869,29.25869,0,0,1,20.273-.105c.824.298,1.635.227,1.828-.213.192-.44-.353-1.102-1.234-1.422a31.00466,31.00466,0,0,0-21.478.112c-.877.33-1.416.998-1.219,1.434"/>
    <path class="d" d="M39.6088,89.2407c.198.438,1.009.501,1.831.193a29.2587,29.2587,0,0,1,20.271-.105c.825.298,1.637.228,1.829-.213.193-.438-.351-1.101-1.234-1.421a31.00462,31.00462,0,0,0-21.478.111c-.878.33-1.417.998-1.219,1.435"/>
    <path class="d" d="M39.63681,94.5399c.198.438,1.01.501,1.829.193a29.27011,29.27011,0,0,1,20.273-.105c.825.299,1.637.228,1.829-.212.192-.439-.352-1.102-1.234-1.422a30.99616,30.99616,0,0,0-21.477.112c-.879.329-1.418.997-1.22,1.434"/>
    <path class="d" d="M39.66351,99.8395c.198.439,1.01.501,1.831.194a29.2586,29.2586,0,0,1,20.273-.105c.823.298,1.636.227,1.827-.213.193-.439-.351-1.102-1.234-1.422a31.00193,31.00193,0,0,0-21.477.112c-.879.329-1.416.998-1.22,1.434"/>
    <path class="d" d="M39.69171,105.1397c.198.438,1.009.501,1.83.193a29.26155,29.26155,0,0,1,20.272-.105c.824.298,1.636.228,1.829-.213.192-.439-.352-1.101-1.234-1.421a31.00462,31.00462,0,0,0-21.478.111c-.878.33-1.417.998-1.219,1.435"/>
    <path class="d" d="M69.64319,68.0154c.198.439,1.01.501,1.831.194a29.26153,29.26153,0,0,1,20.272-.106c.824.299,1.636.228,1.829-.212.192-.439-.352-1.102-1.235-1.422a31.0019,31.0019,0,0,0-21.477.112c-.879.329-1.417.997-1.22,1.434"/>
    <path class="d" d="M39.5264,68.1721c.198.439,1.009.5,1.831.194a29.25878,29.25878,0,0,1,20.271-.106c.826.299,1.636.227,1.829-.212.192-.44-.352-1.102-1.234-1.422a30.99886,30.99886,0,0,0-21.478.111c-.878.33-1.416.998-1.219,1.435"/>
    <path class="d" d="M306.2121,117.7959a7.64039,7.64039,0,0,1,.66394-5.089c1.022-1.754,6.078-3.318,11.388-3.318s10.259,1.509,11.451,3.207c1.209,1.724.724,5.291.724,5.291Z"/>
  </g>
  <rect class="a" x="-291.5" y="-247.5" width="792" height="432"/>
</svg>
