<svg version="1.0" xmlns="http://www.w3.org/2000/svg"
  width="1114.000000pt" height="601.000000pt" viewBox="0 0 1114.000000 601.000000"
  preserveAspectRatio="xMidYMid meet" aria-labelledby="queens-public-library-logo" class="svg-icon queens-icon">
  <title id="queens-public-library-logo">Queens Public Library</title>
  <metadata>
  Created by potrace 1.15, written by Peter Selinger 2001-2017
  </metadata>
  <g transform="translate(0.000000,601.000000) scale(0.100000,-0.100000)"
  fill="#000000" stroke="none">
  <path d="M1152 5344 l-1152 -666 2 -1341 3 -1341 1720 -994 c946 -546 1725
  -996 1732 -998 10 -5 1129 632 1160 660 10 9 -123 90 -557 340 -314 181 -570
  332 -570 335 0 3 257 154 570 335 l570 328 0 1337 0 1336 -1151 665 c-634 366
  -1157 666 -1163 667 -6 2 -530 -297 -1164 -663z m1725 -1005 c307 -177 564
  -327 571 -333 9 -9 12 -284 10 -1332 l-3 -1321 -560 324 c-308 179 -566 327
  -572 330 -7 3 -268 -142 -580 -322 -313 -180 -571 -330 -576 -332 -4 -2 -6
  593 -5 1322 l3 1327 570 329 c314 181 573 329 577 329 4 0 259 -145 565 -321z"/>
  <path d="M6101 5335 c-81 -23 -145 -62 -206 -126 -232 -243 -120 -651 200
  -734 75 -19 174 -19 247 0 l57 15 96 -55 c122 -69 126 -70 173 -46 78 40 68
  65 -53 133 l-93 52 34 40 c130 152 136 394 14 557 -48 64 -124 121 -198 149
  -75 29 -198 35 -271 15z m253 -139 c31 -15 75 -49 100 -77 146 -162 100 -403
  -97 -506 -45 -24 -63 -28 -142 -28 -78 0 -97 4 -140 27 -144 76 -215 237 -169
  384 60 192 271 286 448 200z"/>
  <path d="M9551 5336 c-8 -9 -10 -133 -9 -437 l3 -424 46 -3 c30 -2 50 2 57 11
  8 9 13 106 14 312 l3 299 253 -317 c241 -301 256 -317 287 -317 21 0 35 6 39
  16 9 24 7 827 -3 842 -5 9 -25 12 -57 10 l-49 -3 -5 -306 -5 -307 -255 319
  c-217 272 -259 319 -281 319 -15 0 -32 -6 -38 -14z"/>
  <path d="M10723 5340 c-119 -24 -203 -117 -203 -227 0 -104 61 -184 185 -242
  137 -64 159 -76 191 -107 64 -60 52 -138 -29 -174 -72 -33 -130 -22 -232 46
  -62 41 -72 40 -108 -8 -26 -35 -16 -61 39 -99 106 -72 260 -92 359 -45 151 70
  191 235 87 356 -26 31 -68 57 -178 111 -158 77 -184 100 -184 167 0 32 7 47
  30 71 52 51 125 54 225 7 29 -14 60 -26 69 -26 21 0 59 65 51 89 -8 27 -98 69
  -171 81 -66 11 -73 11 -131 0z"/>
  <path d="M6927 5324 c-4 -4 -7 -144 -7 -310 0 -283 1 -307 21 -359 28 -75 99
  -146 176 -175 82 -31 215 -25 289 12 60 31 118 93 148 157 20 44 21 60 21 361
  l0 315 -48 3 c-27 2 -55 -2 -63 -9 -11 -9 -14 -62 -14 -298 0 -278 -1 -288
  -22 -331 -13 -24 -40 -57 -61 -74 -32 -26 -49 -31 -105 -34 -88 -5 -144 23
  -187 93 l-30 48 -5 301 -5 301 -50 3 c-28 2 -54 0 -58 -4z"/>
  <path d="M7902 5318 c-18 -18 -17 -807 1 -831 11 -16 36 -17 272 -15 l260 3 0
  50 0 50 -207 3 -208 2 0 135 0 135 178 2 177 3 0 50 0 50 -177 3 -178 2 0 130
  0 130 208 2 207 3 0 50 0 50 -260 3 c-194 2 -264 -1 -273 -10z"/>
  <path d="M8725 5318 c-3 -7 -4 -200 -3 -428 l3 -415 265 0 265 0 0 50 0 50
  -207 3 -208 2 0 135 0 135 178 2 177 3 0 50 0 50 -177 3 -178 2 0 130 0 130
  208 2 207 3 0 50 0 50 -263 3 c-205 2 -264 0 -267 -10z"/>
  <path d="M9955 3440 c-150 -24 -271 -116 -338 -258 -30 -63 -32 -73 -32 -183
  0 -113 1 -117 37 -190 46 -93 122 -168 215 -212 65 -30 74 -32 188 -32 115 0
  123 1 185 32 73 36 130 84 130 108 0 23 -49 65 -75 65 -12 0 -34 -9 -48 -20
  -14 -11 -51 -32 -83 -47 -110 -50 -257 -16 -340 81 -61 71 -79 121 -79 216 0
  100 20 154 83 222 106 115 282 131 411 37 23 -16 49 -29 60 -29 18 0 71 52 71
  69 0 32 -106 104 -190 129 -52 16 -139 21 -195 12z"/>
  <path d="M5835 3417 c-3 -6 -4 -199 -3 -427 l3 -415 55 0 55 0 3 147 3 146
  132 4 c142 4 175 14 245 73 113 95 113 309 0 411 -75 67 -101 74 -306 74 -137
  0 -184 -3 -187 -13z m366 -130 c59 -30 94 -97 84 -158 -9 -53 -64 -115 -113
  -129 -21 -5 -79 -10 -129 -10 l-93 0 0 160 0 160 103 0 c89 0 110 -3 148 -23z"/>
  <path d="M6651 3411 c-14 -26 -14 -494 0 -581 18 -111 74 -190 172 -242 36
  -20 57 -23 152 -23 100 0 115 2 161 27 73 38 130 107 154 186 18 57 20 93 20
  342 0 153 -3 285 -6 294 -7 19 -94 22 -112 4 -9 -9 -12 -89 -12 -298 0 -277
  -1 -287 -22 -330 -13 -24 -40 -57 -61 -74 -71 -56 -210 -46 -268 20 -52 59
  -54 71 -59 389 l-5 300 -52 3 c-43 3 -54 0 -62 -17z"/>
  <path d="M7632 3418 c-9 -9 -12 -116 -12 -419 0 -342 2 -408 14 -419 11 -8 68
  -11 208 -8 176 3 197 5 234 25 150 80 181 280 59 380 l-38 32 31 39 c42 52 52
  82 52 153 0 74 -17 115 -65 162 -59 57 -103 67 -300 67 -120 0 -175 -4 -183
  -12z m365 -124 c15 -11 35 -40 43 -62 13 -37 13 -47 0 -84 -25 -69 -54 -82
  -181 -86 l-109 -4 0 132 0 132 109 -4 c92 -3 115 -7 138 -24z m10 -374 c45
  -27 65 -63 65 -112 -1 -49 -25 -86 -73 -110 -26 -14 -59 -18 -141 -18 l-108 0
  0 130 0 130 113 0 c93 0 117 -3 144 -20z"/>
  <path d="M8492 3418 c-19 -19 -17 -821 2 -837 9 -8 82 -11 242 -9 l229 3 0 50
  0 50 -177 3 -178 2 -2 373 -3 372 -50 3 c-30 2 -55 -2 -63 -10z"/>
  <path d="M9191 3411 c-17 -31 -15 -802 2 -825 10 -13 24 -17 62 -14 l50 3 0
  425 0 425 -52 3 c-43 3 -54 0 -62 -17z"/>
  <path d="M8991 1513 c-150 -322 -361 -803 -359 -818 3 -17 12 -20 59 -23 l56
  -3 45 103 45 103 197 3 196 2 40 -87 c57 -125 50 -118 111 -118 50 0 54 2 56
  25 2 15 -69 186 -180 430 l-182 405 -36 3 c-30 3 -37 -1 -48 -25z m123 -366
  l74 -167 -150 0 c-139 0 -150 1 -144 18 11 31 141 320 143 318 1 -1 35 -77 77
  -169z"/>
  <path d="M5835 1517 c-3 -6 -4 -199 -3 -427 l3 -415 240 0 240 0 0 50 0 50
  -177 3 -178 2 0 363 c0 269 -3 366 -12 375 -16 16 -107 16 -113 -1z"/>
  <path d="M6536 1514 c-8 -20 -8 -808 0 -828 7 -19 94 -22 112 -4 9 9 12 115
  12 414 0 221 -3 409 -6 418 -9 23 -109 23 -118 0z"/>
  <path d="M6992 1518 c-9 -9 -12 -116 -12 -419 0 -342 2 -408 14 -419 11 -8 68
  -11 208 -8 l193 3 55 31 c138 78 163 270 48 368 l-41 35 28 33 c41 48 55 89
  55 158 0 74 -16 116 -65 163 -59 57 -103 67 -300 67 -120 0 -175 -4 -183 -12z
  m365 -124 c15 -11 35 -40 43 -62 13 -37 13 -47 0 -84 -10 -27 -27 -50 -49 -65
  -30 -20 -46 -23 -137 -23 l-104 0 0 131 0 131 109 -4 c92 -3 115 -7 138 -24z
  m2 -372 c100 -51 100 -173 0 -224 -26 -14 -59 -18 -141 -18 l-108 0 0 130 0
  130 108 0 c82 0 115 -4 141 -18z"/>
  <path d="M7852 1518 c-9 -9 -12 -116 -12 -419 0 -339 2 -409 14 -418 8 -7 36
  -11 63 -9 l48 3 3 158 3 157 99 0 100 0 80 -160 80 -160 60 0 c90 0 89 14 -8
  192 l-79 146 43 31 c87 61 135 166 120 262 -8 57 -57 141 -99 173 -64 49 -104
  56 -311 56 -136 0 -196 -4 -204 -12z m391 -122 c18 -7 45 -28 60 -45 52 -62
  45 -140 -19 -202 l-35 -34 -140 -3 -139 -4 0 151 0 151 120 0 c79 0 132 -5
  153 -14z"/>
  <path d="M9656 1515 c-8 -21 -8 -808 0 -829 9 -23 109 -23 118 0 3 9 6 81 6
  160 l0 144 98 0 97 0 80 -158 80 -157 59 0 c93 0 93 7 -2 181 -80 148 -80 149
  -59 164 96 67 140 141 140 240 1 78 -24 140 -75 192 -69 68 -89 73 -324 76
  -188 3 -212 1 -218 -13z m400 -121 c42 -20 70 -55 85 -105 10 -33 9 -43 -12
  -86 -13 -26 -39 -58 -58 -70 -31 -21 -46 -23 -162 -23 l-129 0 0 150 0 150
  121 0 c91 0 129 -4 155 -16z"/>
  <path d="M10435 1509 c-8 -24 2 -40 167 -267 l118 -163 0 -192 c0 -137 3 -196
  12 -205 18 -18 105 -15 112 4 3 9 6 101 6 204 l0 189 145 198 c171 232 175
  246 84 251 l-57 3 -117 -161 c-65 -89 -121 -158 -124 -153 -4 4 -50 67 -101
  138 -130 181 -124 175 -186 175 -44 0 -54 -3 -59 -21z"/>
  </g>
</svg>