<svg xmlns="http://www.w3.org/2000/svg" preserveAspectRatio="xMidYMid meet" role="img" viewBox="0 0 452.68932 163.64924" aria-labelledby="">
  <title id="Kids &amp; Teens Get a New Start">Kids &amp; Teens Get a New Start</title>
  <g id="Layer_2" data-name="Layer 2">
    <g id="Layer_1-2" data-name="Layer 1">
      <g id="new_start_big_text" data-name="new start big text">
        <path d="M54.017,55.487c5.428-.011,7.91-.021,13.339-.032a2.90311,2.90311,0,0,1,3.172,1.951c4.662,7.962,10.879,21.107,15.54,29.069-.472-9.225-.799-22.171-.468-30.671a.73338.73338,0,0,1,.949-.863c3.585.216,7.17-.099,10.756.116a1.31931,1.31931,0,0,1,1.451,1.676c.296,17.817.857,37.226.473,55.041q-5.37151.0165-10.741.032a2.748,2.748,0,0,1-3.025-1.763c-4.834-8.084-12.56-21.414-18.46-31.642.073,10.459.031,22.687-.343,33.147a.95438.95438,0,0,1-.246.673,1.06937,1.06937,0,0,1-.754.19l-10.405-.051a1.1833,1.1833,0,0,1-1.419-1.46c-.272-17.865.181-55.413.181-55.413" fill="#ffb819"/>
        <path d="M54.017,56.00423c4.012-.008,8.301-.44,12.29-.03,4.431.456,6.275,6.111,8.139,9.659,3.7,7.044,7.178,14.219,11.176,21.103a.52083.52083,0,0,0,.963-.261c-.444-8.874-.713-17.774-.573-26.659q.0225-1.4295.065-2.859c.044-1.42.062-1.385,1.547-1.449,2.489-.108,5.037-.047,7.53-.008,2.039.032,2.801.116,3.103,2.283a27.22506,27.22506,0,0,1,.056,3.17q.07349,4.02.153,8.039c.202,10.533.4,21.068.373,31.603q-.009,3.74551-.062,7.489c-.014,1,.334,2.585-.622,3.176-.724.447-3.454.01-4.297.013-3.077.009-6.179.603-8.307-2.092a41.06612,41.06612,0,0,1-2.766-4.669q-7.7445-13.14-15.335-26.373a.52139.52139,0,0,0-.964.261c.063,9.546.045,19.095-.204,28.639a21.13445,21.13445,0,0,1-.105,3.523c-.374,1.813-1.544,1.327-3.119,1.319-2.228-.011-5.144.515-7.283-.036-1.85-.476-1.441-2.183-1.457-3.795q-.0255-2.373-.035-4.744c-.064-12.752.032-25.506.151-38.257q.045-4.78052.1-9.562a.51731.51731,0,0,0-1.034,0q-.183,15.246-.245,30.495c-.031,7.255-.046,14.511.025,21.767.021,2.125-.646,4.767,1.975,5.127a60.98977,60.98977,0,0,0,7.803.039c.961.005,2.931.441,3.762-.381,1.122-1.108.488-5.123.522-6.519q.108-4.458.154-8.915c.068-6.233.065-12.466.024-18.7l-.963.261q6.981,12.1035,14.035,24.164,1.461,2.48852,2.931,4.971c.704,1.187,1.365,2.908,2.467,3.791,1.307,1.047,3.074.734,4.646.73q4.296-.0135,8.593-.026a.52627.52627,0,0,0,.517-.517c.214-10.45.129-20.901-.039-31.351-.081-5.067-.183-10.134-.28-15.2-.047-2.479-.054-4.962-.136-7.44-.04-1.21.122-2.292-.96-3.007-1.259-.833-3.91-.318-5.329-.308-1.075.008-2.151.037-3.226.035-.993-.002-2.683-.386-3.612-.074-1.868.626-1.162,3.859-1.186,5.387-.139,8.886.128,17.785.573,26.659q.4815-.13051.964-.261c-4.587-7.898-8.492-16.17-12.825-24.206-1.288-2.39-2.526-6.417-5.504-7.041-2.171-.455-4.877-.02-7.104-.014q-3.53249.009-7.065.017a.5173.5173,0,0,0,0,1.034" fill="#fff"/>
        <path d="M103.83291,54.93364c.453,18.357.376,37.682.829,56.04a.87958.87958,0,0,0,1.057,1.06q16.90052.3915,33.8-.437a1.25791,1.25791,0,0,0,1.516-1.568c-.218-4.62-.436-7.65-.654-12.27-7.26-.014-13.989-.027-21.249-.04a81.0801,81.0801,0,0,1-.116-8.482,1.59233,1.59233,0,0,1,.315-1.077,1.61292,1.61292,0,0,1,1.161-.332q5.28-.102,10.561-.203a1.05261,1.05261,0,0,0,1.242-1.391q-.32549-4.275-.653-8.551a1.504,1.504,0,0,0-1.818-1.694q-5.12851-.1965-10.262-.059a1.63162,1.63162,0,0,1-1.344-.374,1.60952,1.60952,0,0,1-.24-1.064q.042-3.567.083-7.135c6.658-.033,20.644-.12,20.848-.359.208-.242-.337-8.387-.567-12.713-10.964.501-34.509.649-34.509.649" fill="#799900"/>
        <path d="M103.31582,54.93364c.256,10.631.344,21.265.454,31.898q.078,7.72048.197,15.439c.043,2.54.061,5.084.152,7.622.031.852-.127,1.72.52,2.357.89.877,3.437.351,4.461.367q3.9435.063,7.888.06,7.89-.00751,15.775-.28c2.257-.078,5.315.346,7.481-.379a1.67681,1.67681,0,0,0,1.28-1.268c.528-1.44-.136-3.978-.223-5.527-.139-2.488-.282-4.975-.402-7.464a.52627.52627,0,0,0-.517-.517q-7.8045-.015-15.609-.03a20.33421,20.33421,0,0,1-3.932-.007c-1.568-.346-1.301-1.237-1.339-2.665-.034-1.237-.036-2.475-.013-3.712.038-1.958.652-2.476,2.587-2.513q3.696-.072,7.393-.143c.851-.016,2.34.235,3.008-.528.863-.985.216-2.972.131-4.082-.148-1.947.18-4.853-.56-6.69a1.9229,1.9229,0,0,0-1.38-1.305c-2.183-.723-5.414-.219-7.685-.208-1.249.006-3.003.457-3.954-.406-.911-.827-.512-2.312-.498-3.519.009-.721-.296-2.774.061-3.31.285-.428,1.223-.259,1.859-.263q5.226-.03,10.453-.089a49.11369,49.11369,0,0,0,7.351-.176c1.365-.232,1.233-.666,1.202-2.086-.081-3.744-.395-7.487-.598-11.225a.52425.52425,0,0,0-.517-.517c-11.49.51-23.009.576-34.509.649a.51732.51732,0,0,0,0,1.034c10.844-.069,21.699-.157,32.536-.567.348-.013,1.256-.203,1.489.014.292.271.135,2.364.16,2.791.1,1.727.204,3.454.291,5.181a15.23362,15.23362,0,0,1,.129,3.618c-.132.61.632-.173-.051.065a4.38285,4.38285,0,0,1-1.13.055c-6.388.274-12.803.2-19.196.232a.52629.52629,0,0,0-.517.517q-.0225,2.03851-.047,4.077c-.012,1.041-.336,2.629-.006,3.622a1.61244,1.61244,0,0,0,1.333,1.348c1.168.371,2.94-.005,4.159-.011q2.28-.012,4.561.042,1.1415.027,2.28.071a3.99258,3.99258,0,0,1,1.465,3.314,35.30565,35.30565,0,0,1,.285,3.742c.091,1.196.678,2.734-.521,3.546-.687.465-3.362.064-4.224.081l-4.225.081a8.73349,8.73349,0,0,0-2.877.117c-.983.439-1.045.867-1.228,1.85-.491,2.646-.043,5.81.116,8.482a.52626.52626,0,0,0,.517.517q8.08349.015,16.167.03c.827.002,3.29-.426,3.941.008,1.099.732.758,2.17.826,3.391.116,2.111.242,4.221.351,6.333.063,1.218.513,2.343-.898,3.082-.964.505-3.4.156-4.503.199q-3.942.15452-7.885.244-7.88848.1785-15.778.091-1.971-.0225-3.944-.061c-1.845-.036-1.921.084-2.256-1.66-.45-2.344-.112-5.233-.152-7.622q-.129-7.719-.197-15.439c-.109-10.633-.197-21.267-.454-31.898a.51731.51731,0,0,0-1.034,0" fill="#fff"/>
        <path d="M143.01492,54.89464a128.21712,128.21712,0,0,1,13.495.214c.19.179,3.964,18.988,5.47,28.628,1.527-4.196,4.093-13.091,4.317-13.292.307-.277,5.428-.04,8.256-.057.065-.001,2.412,8.548,3.872,13.139,1.733-10.254,5.489-29.642,5.758-29.82.252-.167,11.818.11,11.947.289.108.152-6.272,56.146-6.573,56.391-.262.213-13.637.239-13.92.034-.26-.188-2.817-11.789-4.253-16.992-1.952,5.298-6.063,16.763-6.274,16.946-.284.246-8.245.202-11.842.177-2.625-18.073-10.253-55.657-10.253-55.657" fill="#00a1af"/>
        <path d="M143.01492,55.41185c3.95-.144,7.944-.15,11.892.068.306.016,1.444.138,1.268-.013-.253-.218-.01.368.043.571.296,1.15.504,2.331.742,3.494,1.66,8.081,3.235,16.193,4.521,24.342.087.551.844.428.998,0,1.149-3.21,2.128-6.479,3.14-9.734.247-.795.433-2.559,1.001-3.133.286-.29-.205.066.468-.16a8.513,8.513,0,0,1,2.392-.011c.536.006,4.432-.303,4.636-.14.405.322.668,2.289.807,2.776.975,3.405,1.94,6.814,3.003,10.193.141.447.906.535.997,0,1.141-6.711,2.397-13.403,3.7-20.085.501-2.571.999-5.144,1.556-7.703a5.972,5.972,0,0,1,.402-1.74c.277-.426-.508.215-.027.051a4.77,4.77,0,0,1,1.269-.015c2.458-.006,4.919.064,7.376.155.823.03,1.652.109,2.476.122.491.007-.04-.689-.077-.21-.183,2.387-.5,4.77-.764,7.149q-1.632,14.739-3.364,29.468-.7635,6.534-1.557,13.064c-.177,1.448-.354,2.897-.548,4.344a5.79077,5.79077,0,0,1-.292,1.945c.402-.569-1.199-.229-1.874-.214-1.337.031-2.674.04-4.011.046-1.488.006-2.977.004-4.466-.015-.691-.009-2.194.259-2.816-.082.033.019.275.252.031-.232a7.35441,7.35441,0,0,1-.374-1.432c-.386-1.534-.746-3.075-1.113-4.613-.826-3.466-1.631-6.939-2.568-10.377a.5218.5218,0,0,0-.997,0c-1.148,3.122-2.279,6.251-3.419,9.376-.531,1.454-1.061,2.908-1.6,4.358-.262.706-.555,2.393-1.119,2.926.011-.01.085-.052-.552.018-.487.053-.992.038-1.482.05-1.857.044-3.716.039-5.574.035a13.345,13.345,0,0,1-2.416-.01c-1.046-.21-.699.246-1.118-.726-.53-1.23-.485-3.142-.702-4.475-2.177-13.395-4.765-26.726-7.387-40.04q-.99-5.025-2.002-10.046c-.133-.651-1.13-.376-.998.275,3.748,18.472,7.523,37.004,10.253,55.657a.519.519,0,0,0,.499.38c3.33.023,6.67.079,9.999-.03,1.218-.04,1.847.093,2.499-.861,1.279-1.875,1.796-4.768,2.572-6.894,1.183-3.239,2.354-6.482,3.544-9.718h-.997c1.264,4.642,2.296,9.344,3.441,14.016.589,2.404.338,3.376,2.842,3.452,3.726.112,7.506.153,11.23-.037,1.414-.072,1.57-.124,1.82-1.405,1.042-5.341,1.368-10.919,2.003-16.318q1.428-12.15,2.799-24.307.6015-5.325,1.187-10.652a20.42674,20.42674,0,0,0,.44-4.319.55163.55163,0,0,0-.38-.499,10.77524,10.77524,0,0,0-3.068-.204q-3.00149-.111-6.004-.144c-2.14-.025-3.313-.551-3.829,1.615-2.244,9.424-3.818,19.079-5.44,28.626h.997c-1.351-4.293-2.064-9.17-3.923-13.264a.51028.51028,0,0,0-.447-.256c-2.424.001-5.063-.395-7.465-.057-1,.14-.971.16-1.466.919-.975,1.499-1.283,4.05-1.81,5.741-.743,2.386-1.488,4.773-2.331,7.126h.998c-1.384-8.767-3.062-17.508-4.906-26.19-.322-1.519-.137-2.588-1.688-2.906-3.986-.817-8.825-.273-12.87-.125-.664.024-.667,1.058,0,1.034" fill="#fff"/>
        <path d="M251.29512,78.77243a23.77872,23.77872,0,0,0-6.428-4.187c-2.597-1.145-5.39-1.474-8.031-2.449-2.686-.992-4.302-4.589-3.8-7.441a3.14874,3.14874,0,0,1,3.51-2.443c1.654.131,1.913,1.218,2.509,2.463.629,1.316,1.137,2.668,2.597,3.113,1.869.569,4.643-.407,6.446-.828,1.403-.327,2.965-.427,3.368-2.043.482-1.933-1.369-4.472-2.295-5.953a1.0795,1.0795,0,0,0-.146-.188c-5.19-6.864-16.317-7.869-23.442-3.805-4.22,2.407-6.338,6.481-7.191,11.142-.908,4.967.182,8.951,4.224,12.103,4.19,3.268,8.702,3.624,13.741,4.416,4.561.718,8.56,2.335,8.227,7.661a11.41311,11.41311,0,0,1-1.694,5.583c-1.691,2.49-4.329,2.512-7.01,1.768-2.309-.641-5.067-2.055-5.867-4.511-.534-1.639.242-3.778-.741-5.309-1.159-1.806-5.023-1.057-6.807-1.046-2.827.019-4.903.042-5.042,3.426-.18,4.402-.397,9.045,1.842,13.017,2.335,4.141,6.455,6.409,11.02,7.256,8.997,1.671,21.442,1.63,26.022-7.886,3.916-8.136,1.549-17.87-5.012-23.859" fill="#ffb819"/>
        <path d="M251.29512,78.77243a23.77872,23.77872,0,0,0-6.428-4.187c-2.597-1.145-5.39-1.474-8.031-2.449-2.686-.992-4.302-4.589-3.8-7.441a3.14874,3.14874,0,0,1,3.51-2.443c1.654.131,1.913,1.218,2.509,2.463.629,1.316,1.137,2.668,2.597,3.113,1.869.569,4.643-.407,6.446-.828,1.403-.327,2.965-.427,3.368-2.043.482-1.933-1.369-4.472-2.295-5.953a1.0795,1.0795,0,0,0-.146-.188c-5.19-6.864-16.317-7.869-23.442-3.805-4.22,2.407-6.338,6.481-7.191,11.142-.908,4.967.182,8.951,4.224,12.103,4.19,3.268,8.702,3.624,13.741,4.416,4.561.718,8.56,2.335,8.227,7.661a11.41311,11.41311,0,0,1-1.694,5.583c-1.691,2.49-4.329,2.512-7.01,1.768-2.309-.641-5.067-2.055-5.867-4.511-.534-1.639.242-3.778-.741-5.309-1.159-1.806-5.023-1.057-6.807-1.046-2.827.019-4.903.042-5.042,3.426-.18,4.402-.397,9.045,1.842,13.017,2.335,4.141,6.455,6.409,11.02,7.256,8.997,1.671,21.442,1.63,26.022-7.886C260.22309,94.49544,257.85609,84.76144,251.29512,78.77243Z" fill="none" stroke="#fff" stroke-miterlimit="10" stroke-width="1.241"/>
        <path d="M253.9253,54.753q18.978-.189,37.956-.379a2.02771,2.02771,0,0,1,1.33.298,1.97566,1.97566,0,0,1,.468,1.636c-.103,4.255-.293,7.154-.396,11.408-4.408.15-8.039.26-12.54.543.666,12.654,1.035,26.854,1.623,39.765a1.87918,1.87918,0,0,1-.378,1.429,2.05753,2.05753,0,0,1-1.501.401c-3.631-.002-6.914-.005-10.545-.007a2.00375,2.00375,0,0,1-1.481-.403,1.93638,1.93638,0,0,1-.36-1.368c-.05-12.961-.099-26.967-.149-39.927q-5.42551-.08851-10.851-.178a3.0797,3.0797,0,0,1-2.125-.57,2.86786,2.86786,0,0,1-.684-1.612c-.67-3.562-.367-11.036-.367-11.036" fill="#799900"/>
        <path d="M253.9253,55.27013q16.18648-.162,32.374-.323l3.907-.039c1.997-.02,2.64.402,2.928,2.437.286,2.018-.164,4.417-.242,6.468-.044,1.14.318,2.691-.695,3.423-.518.373-2.39.08-3.124.107q-4.16849.15147-8.33.399a.5251.5251,0,0,0-.518.517c.398,7.657.678,15.32.959,22.982q.204,5.553.422,11.104c.06,1.473.743,4.306.243,5.678-.738,2.026-4.49,1.312-6.116,1.311-1.556-.001-4.349.545-5.791-.004-1.974-.751-1.333-3.835-1.34-5.492q-.02248-5.95049-.044-11.901-.045-11.895-.089-23.788a.52488.52488,0,0,0-.517-.517q-4.341-.072-8.681-.142c-1.7-.028-3.518.306-4.481-1.839a10.25467,10.25467,0,0,1-.321-3.089c-.147-2.596-.127-5.212-.027-7.809.026-.666-1.008-.665-1.034,0-.1,2.598-.12,5.213.027,7.809.149,2.636.098,5.604,3.283,5.907,2.624.25,5.341.101,7.978.144,1.331.021,2.365-.314,2.744,1.118.333,1.257.012,2.951.017,4.26q.03149,8.427.062,16.854c.02,5.39-.045,10.789.061,16.178.019.972-.171,2.127.62,2.867,1.284,1.2,4.414.476,5.977.477,2.172.001,5.104.545,7.19-.064,1.067-.312,1.339-.869,1.493-1.896.333-2.216-.172-4.867-.262-7.108q-.168-4.23-.321-8.461c-.221-5.988-.434-11.977-.699-17.964a43.80327,43.80327,0,0,1-.216-4.605c.118-1.818.839-1.586,2.619-1.676,3.099-.157,6.201-.255,9.302-.36a.52783.52783,0,0,0,.518-.517c.058-2.201.146-4.4.234-6.599.067-1.689.529-3.904.129-5.548a1.92758,1.92758,0,0,0-1.44-1.657c-1.819-.685-5.038-.014-6.983.006q-15.90747.159-31.816.318a.5173.5173,0,0,0,0,1.034" fill="#fff"/>
        <path d="M365.20463,54.753q18.978-.189,37.956-.379a2.02771,2.02771,0,0,1,1.33.298,1.97566,1.97566,0,0,1,.468,1.636c-.103,4.255-.293,7.154-.396,11.408-4.408.15-8.04.26-12.54.543.666,12.654,1.035,26.854,1.623,39.765a1.87556,1.87556,0,0,1-.379,1.429,2.05373,2.05373,0,0,1-1.5.401c-3.631-.002-6.914-.005-10.545-.007a2.00375,2.00375,0,0,1-1.481-.403,1.93638,1.93638,0,0,1-.36-1.368c-.05-12.961-.1-26.967-.15-39.927q-5.424-.08851-10.85-.178a3.0797,3.0797,0,0,1-2.125-.57,2.86786,2.86786,0,0,1-.684-1.612c-.67-3.562-.367-11.036-.367-11.036" fill="#799900"/>
        <path d="M365.20463,55.27013q16.18648-.162,32.374-.323l3.907-.039c1.997-.02,2.64.402,2.928,2.437.286,2.018-.164,4.417-.242,6.468-.044,1.14.318,2.691-.696,3.423-.517.373-2.389.08-3.123.107q-4.16849.15147-8.33.399a.5251.5251,0,0,0-.518.517c.398,7.657.677,15.32.959,22.982q.204,5.553.422,11.104c.06,1.473.743,4.306.243,5.678-.738,2.026-4.49,1.312-6.116,1.311-1.556-.001-4.349.545-5.791-.004-1.974-.751-1.333-3.835-1.34-5.492q-.02248-5.95049-.044-11.901-.045-11.895-.089-23.788a.52576.52576,0,0,0-.518-.517q-4.33946-.072-8.68-.142c-1.701-.028-3.519.306-4.481-1.839a10.25467,10.25467,0,0,1-.321-3.089c-.147-2.596-.127-5.212-.027-7.809.026-.666-1.009-.665-1.034,0-.101,2.598-.12,5.213.027,7.809.149,2.636.098,5.604,3.283,5.907,2.624.25,5.341.101,7.978.144,1.331.021,2.365-.314,2.744,1.118.333,1.257.012,2.951.017,4.26q.03149,8.427.062,16.854c.02,5.39-.045,10.789.061,16.178.019.972-.171,2.127.62,2.867,1.284,1.2,4.414.476,5.977.477,2.172.001,5.104.545,7.19-.064,1.067-.312,1.339-.869,1.493-1.896.333-2.216-.172-4.867-.262-7.108q-.168-4.23-.321-8.461c-.221-5.988-.434-11.977-.699-17.964a43.80327,43.80327,0,0,1-.216-4.605c.118-1.818.839-1.586,2.619-1.676,3.099-.157,6.201-.255,9.302-.36a.52631.52631,0,0,0,.517-.517c.059-2.201.147-4.4.235-6.599.066-1.689.529-3.904.129-5.548a1.92758,1.92758,0,0,0-1.44-1.657c-1.819-.685-5.039-.014-6.983.006q-15.90747.159-31.816.318a.5173.5173,0,0,0,0,1.034" fill="#fff"/>
        <path d="M307.45179,83.88115c-.097-.162,2.448-11.986,2.448-11.986,1.443,3.807,2.821,8.338,4.264,12.144-1.914.224-6.532.145-6.712-.158m14.727-7.099c-2.391-7.069-3.878-13.424-6.891-20.801a1.81077,1.81077,0,0,0-.786-.936,2.42818,2.42818,0,0,0-1.083-.192c-3.163-.071-7.297.076-10.46.004a2.92393,2.92393,0,0,0-1.463.219c-.783.426-.811,1.417-.937,2.249-2.627,17.35-7.148,34.327-10.42,51.493,0,0,15.063.238,15.279.069.254-.198,1.14-9.518,1.432-13.578a1.47,1.47,0,0,1,.446-1.152,1.76618,1.76618,0,0,1,1.023-.22q2.613-.02552,5.226-.051a2.12324,2.12324,0,0,1,1.178.216,1.79226,1.79226,0,0,1,.633,1.193c.98,4.324,1.961,9.109,2.941,13.433a102.55905,102.55905,0,0,0,13.902-.362c-3.484-10.302-6.536-21.283-10.02-31.584" fill="#00a1af"/>
        <path d="M307.45179,83.88115c-.097-.162,2.448-11.986,2.448-11.986,1.443,3.807,2.821,8.338,4.264,12.144C312.2498,84.26314,307.63179,84.18414,307.45179,83.88115Zm14.727-7.099c-2.391-7.069-3.878-13.424-6.891-20.801a1.81077,1.81077,0,0,0-.786-.936,2.42818,2.42818,0,0,0-1.083-.192c-3.163-.071-7.297.076-10.46.004a2.92393,2.92393,0,0,0-1.463.219c-.783.426-.811,1.417-.937,2.249-2.627,17.35-7.148,34.327-10.42,51.493,0,0,15.063.238,15.279.069.254-.198,1.14-9.518,1.432-13.578a1.47,1.47,0,0,1,.446-1.152,1.76618,1.76618,0,0,1,1.023-.22q2.613-.02552,5.226-.051a2.12324,2.12324,0,0,1,1.178.216,1.79226,1.79226,0,0,1,.633,1.193c.98,4.324,1.961,9.109,2.941,13.433a102.55905,102.55905,0,0,0,13.902-.362C328.71479,98.06415,325.66279,87.08314,322.17881,76.78213Z" fill="none" stroke="#fff" stroke-miterlimit="10" stroke-width="0.555"/>
        <path d="M322.67741,76.64464c-1.353-4.053-2.524-8.161-3.822-12.231-.695-2.181-1.431-4.35-2.247-6.489-.402-1.053-.697-2.595-1.741-3.245-1.935-1.206-5.975-.343-8.166-.327-2.039.015-5.402-.87-6.393,1.496-.627,1.497-.602,3.63-.866,5.209q-.6,3.58649-1.286,7.159c-.84,4.395-1.761,8.774-2.708,13.147-1.972,9.099-4.051,18.173-5.808,27.317a.5237.5237,0,0,0,.498.654q4.4865.0705,8.974.112c1.319.011,5.823.807,6.785-.365.59-.717.474-3.034.567-3.89.275-2.526.51-5.057.722-7.589a9.52873,9.52873,0,0,1,.143-1.782c.575-1.786,1.672-1.373,3.08-1.387a13.682,13.682,0,0,1,2.613-.025c1.439.283,1.597.898,2.061,2.03.763,1.861.932,4.262,1.357,6.236q.66751,3.09748,1.358,6.191a.52477.52477,0,0,0,.498.38,111.04217,111.04217,0,0,0,13.903-.362.52348.52348,0,0,0,.498-.655c-3.52-10.471-6.499-21.113-10.02-31.584-.211-.628-1.21-.358-.997.275,3.52,10.471,6.499,21.113,10.02,31.584q.249-.327.499-.655c-2.489.222-4.981.376-7.48.43a22.68661,22.68661,0,0,1-4.282,0c-1.458-.265-1.499-.213-2.094-1.713-.876-2.204-1.083-5.004-1.584-7.312-.307-1.413-.362-3.868-1.242-4.989-.7-.893-1.382-.876-2.495-.891-1.489-.019-3.993-.44-5.381.1-1.924.748-1.454,3.755-1.605,5.469-.26,2.96-.738,5.929-.925,8.89-.062.973.319.426-.412.583a13.445,13.445,0,0,1-2.677.014c-3.962-.009-7.923-.067-11.884-.129.166.218.333.437.499.655,2.847-14.819,6.569-29.459,9.229-44.315q.49347-2.754.933-5.518c.352-2.218.902-3.749,3.507-3.731,2.682.019,8.098-1.039,10.008.876,2.392,2.398,3.158,7.147,4.153,10.367,1.061,3.432,2.075,6.877,3.213,10.285.209.628,1.209.359.997-.275" fill="#fff"/>
        <path d="M350.13771,75.38065c-.058.798-.234.899-1.023,1.295a20.37589,20.37589,0,0,1-4.014.21.70863.70863,0,0,1-.449-.106.51757.51757,0,0,1-.142-.367c-.428-4.134-.408-12.726-.408-12.726a8.31724,8.31724,0,0,1,4.412.158,1.72757,1.72757,0,0,1,.766.556c.181.266.937,9.894.858,10.98m4.723,9.011a10.64507,10.64507,0,0,0,5.77-3.548c1.906-2.105,1.817-4.887,1.915-7.702.123-3.536-1.505-13.547-4.956-16.553-5.012-4.367-18.613-3.099-26.712-1.064,0,0,3.213,53.668,3.566,54.006.385.37,9.334.334,13.239.309q-.525-9.387-1.05-18.772c3.19,5.534,5.375,11.068,8.566,16.601a4.08457,4.08457,0,0,0,1.489,1.722,4.20054,4.20054,0,0,0,2.005.304c4.516-.06,7.596-.119,12.113-.178-5.468-9.122-9.74-16.348-15.945-25.125" fill="#ffb819"/>
        <path d="M354.9983,84.89033a11.56012,11.56012,0,0,0,6.563-4.407c1.498-2.222,1.524-5.16,1.508-7.745a30.72921,30.72921,0,0,0-3.358-14.207c-2.259-4.042-6.905-4.988-11.205-5.297a58.19828,58.19828,0,0,0-17.766,1.791.5223.5223,0,0,0-.38.499q.74547,12.438,1.525,24.874.5625,8.9715,1.157,17.941c.228,3.384-.024,7.33.798,10.639.282,1.135.541,1.144,1.836,1.252,3.971.331,8.026.151,12.007.126a.5216.5216,0,0,0,.517-.517q-.525-9.38551-1.051-18.772l-.963.261c1.804,3.186,3.386,6.479,4.996,9.766,1.25,2.553,2.4,5.755,4.294,7.904,1.401,1.589,3.418,1.211,5.368,1.183,3.32-.047,6.641-.103,9.961-.147a.52223.52223,0,0,0,.447-.778c-5.103-8.517-10.228-17.002-15.945-25.126-.38-.54-1.277-.024-.893.522,5.717,8.124,10.842,16.609,15.945,25.126q.22348-.39.446-.778-3.984.05251-7.969.118a23.739,23.739,0,0,1-4.144.059c-1.965-.344-2.97-1.596-3.868-3.234-2.725-4.973-4.949-10.199-7.745-15.137a.52123.52123,0,0,0-.964.261q.37051,6.62551.742,13.251c.061,1.104.111,2.209.185,3.313.084,1.257.419,1.369-.433,1.697-1.093.422-3.192.01-4.369.006-2.11-.007-4.905.412-6.953-.168-1.002-.283-.093.398-.399-.067a3.1044,3.1044,0,0,1-.102-1.04c-.638-6.921-.991-13.877-1.434-20.812q-.79948-12.537-1.556-25.077-.11247-1.857-.225-3.712a8.01084,8.01084,0,0,1-.153-2.55c.204-.481,1.934-.428,3.048-.638a60.7103,60.7103,0,0,1,10.925-1.097c3.334-.015,7.046.154,10.086,1.664,3.193,1.587,4.374,5.01,5.249,8.257a34.35208,34.35208,0,0,1,1.309,8.644c.016,2.68-.008,5.537-1.77,7.74a10.64787,10.64787,0,0,1-5.542,3.415.51743.51743,0,0,0,.275.997" fill="#fff"/>
        <path d="M349.63951,75.24283c-.202,1.328-2.177,1.112-3.04,1.125-1.076.017-1.375.043-1.667-1.027a20.6398,20.6398,0,0,1-.216-4.518q-.0645-2.202-.084-4.405c-.004-.381-.291-2.347-.014-2.632.273-.281,4.121.709,4.184.816a3.38761,3.38761,0,0,1,.142,1.083c.128,1.113.211,2.232.301,3.349a55.23413,55.23413,0,0,1,.376,6.346c-.024.666,1.01.665,1.034,0a68.24913,68.24913,0,0,0-.637-9.304,4.63773,4.63773,0,0,0-.373-2.04c-1.111-1.607-4.134-1.058-5.681-.848a.51809.51809,0,0,0-.38.499q-.00449,2.40752.044,4.815c.043,2.37-.367,5.632.364,7.911.455,1.418,1.935,1.022,3.24.977,1.458-.049,3.14-.13,3.404-1.872.099-.651-.897-.932-.997-.275" fill="#fff"/>
        <path d="M84.79142,33.24644v-17.001a1.3123,1.3123,0,0,0-2.623,0v17.001a1.31228,1.31228,0,0,0,2.623,0" fill="#ffb819"/>
        <path d="M59.56152,33.312q-3.01051-7.902-6.022-15.805c-.595-1.562-3.132-.884-2.529.697q3.01049,7.90347,6.022,15.805c.595,1.562,3.132.885,2.529-.697" fill="#ffb819"/>
        <path d="M30.88132,42.70814a73.69536,73.69536,0,0,0-14.386-4.679c-1.646-.351-2.35,2.177-.697,2.53a70.45261,70.45261,0,0,1,13.759,4.414c1.531.674,2.867-1.585,1.324-2.265" fill="#ffb819"/>
        <path d="M28.83181,71.94354q-7.587.36752-15.173.735c-1.68.081-1.69,2.705,0,2.623q7.587-.36749,15.173-.735c1.68-.081,1.69-2.705,0-2.623" fill="#ffb819"/>
        <path d="M26.356,106.44183a111.301,111.301,0,0,0-16.035,6.406c-1.515.745-.187,3.008,1.324,2.265a106.80686,106.80686,0,0,1,15.408-6.142c1.606-.5.921-3.033-.697-2.529" fill="#ffb819"/>
        <path d="M35.07012,126.27324q-2.808,7.257-5.616,14.513c-.61,1.576,1.925,2.258,2.529.698q2.808-7.257,5.616-14.514c.61-1.575-1.925-2.257-2.529-.697" fill="#ffb819"/>
        <path d="M411.83,130.24823l17.372,13.065c1.349,1.014,2.658-1.262,1.323-2.265q-8.685-6.53249-17.371-13.065c-1.35-1.015-2.658,1.262-1.324,2.265" fill="#ffb819"/>
        <path d="M426.529,109.01793H443.53a1.3123,1.3123,0,0,0,0-2.623H426.529a1.31227,1.31227,0,0,0,0,2.623" fill="#ffb819"/>
        <path d="M430.17363,78.28863a71.63484,71.63484,0,0,0,14.879-3.215c1.594-.529.911-3.063-.697-2.529a68.51577,68.51577,0,0,1-14.182,3.121c-1.66.181-1.679,2.806,0,2.623" fill="#ffb819"/>
        <path d="M424.411,44.71043a47.03781,47.03781,0,0,1,8.574-10.465c1.248-1.143-.611-2.994-1.855-1.855a49.53624,49.53624,0,0,0-8.984,10.996,1.31256,1.31256,0,0,0,2.265,1.324" fill="#ffb819"/>
        <path d="M397.94191,21.96883q-1.215,4.554-2.429,9.108a1.31294,1.31294,0,0,0,2.53.697q1.21349-4.554,2.428-9.108a1.31244,1.31244,0,0,0-2.529-.697" fill="#ffb819"/>
        <path d="M365.24943,21.37953q-.86252,4.563-1.726,9.126c-.312,1.649,2.215,2.356,2.529.697q.86252-4.563,1.726-9.126c.312-1.649-2.215-2.356-2.529-.697" fill="#ffb819"/>
        <path d="M71.02542,24.34615a102.95833,102.95833,0,0,0-.683-13.552c-.193-1.657-2.819-1.676-2.623,0a102.95833,102.95833,0,0,1,.683,13.552,1.31229,1.31229,0,0,0,2.623,0" fill="#fff"/>
        <path d="M44.96971,33.31352q-5.38351-5.247-10.516-10.739c-1.155-1.236-3.007.622-1.854,1.855q5.1315,5.493,10.515,10.739c1.21,1.178,3.067-.674,1.855-1.855" fill="#fff"/>
        <path d="M19.32512,55.11824q-8.199-.20847-16.398-.416a1.31228,1.31228,0,0,0,0,2.623q8.199.20851,16.398.416a1.31231,1.31231,0,0,0,0-2.623" fill="#fff"/>
        <path d="M17.70342,91.02933a137.51687,137.51687,0,0,0-16.756,1.997c-1.659.301-.956,2.829.697,2.529a131.906,131.906,0,0,1,16.059-1.903c1.678-.096,1.689-2.719,0-2.623" fill="#fff"/>
        <path d="M22.52121,122.60274q-5.91751,4.30051-11.662,8.827c-1.325,1.043.542,2.888,1.855,1.854q5.484-4.317,11.131-8.416c1.352-.983.045-3.26-1.324-2.265" fill="#fff"/>
        <path d="M352.95671,25.758V13.008a1.31229,1.31229,0,0,0-2.623,0v12.75a1.31229,1.31229,0,0,0,2.623,0" fill="#fff"/>
        <path d="M400.61521,146.47974v-12.75a1.31229,1.31229,0,0,0-2.623,0v12.75a1.31229,1.31229,0,0,0,2.623,0" fill="#fff"/>
        <path d="M382.08961,26.16264q.10345-6.285.631-12.547c.141-1.682-2.482-1.672-2.623,0q-.528,6.264-.631,12.547a1.31229,1.31229,0,0,0,2.623,0" fill="#fff"/>
        <path d="M413.31291,32.50484a115.91387,115.91387,0,0,0,7.246-13.582c.688-1.526-1.572-2.862-2.265-1.324a115.9145,115.9145,0,0,1-7.246,13.582c-.894,1.438,1.374,2.756,2.265,1.324" fill="#fff"/>
        <path d="M433.11583,59.79674q7.842-3.6525,15.684-7.304c1.529-.712.198-2.973-1.324-2.265q-7.842,3.65254-15.684,7.304c-1.529.712-.198,2.974,1.324,2.265" fill="#fff"/>
        <path d="M433.61021,93.52324q8.90547-.1545,17.812-.053a1.31227,1.31227,0,0,0,0-2.623q-8.90547-.102-17.812.053a1.31229,1.31229,0,0,0,0,2.623" fill="#fff"/>
        <path d="M430.59132,124.52153a136.86274,136.86274,0,0,0,16.598,7.844c1.571.619,2.253-1.916.698-2.529a131.74262,131.74262,0,0,1-15.972-7.58c-1.475-.824-2.799,1.441-1.324,2.265" fill="#fff"/>
        <path d="M98.86561,9.26332v13.965a1.31228,1.31228,0,0,0,2.623,0V9.26332a1.31227,1.31227,0,0,0-2.623,0" fill="#fff"/>
        <path d="M49.60681,129.23944v22.178a1.31227,1.31227,0,0,0,2.623,0v-22.178a1.31227,1.31227,0,0,0-2.623,0" fill="#fff"/>
        <path d="M114.75172,15.32313q.95849,8.058,1.917,16.115c.197,1.655,2.822,1.675,2.623,0q-.95851-8.058-1.917-16.115c-.197-1.656-2.822-1.676-2.623,0" fill="#ffb819"/>
        <path d="M130.26112,9.66933v13.559a1.31228,1.31228,0,0,0,2.623,0V9.66933a1.31227,1.31227,0,0,0-2.623,0" fill="#fff"/>
        <path d="M144.91331,15.89784v15.208a1.31227,1.31227,0,0,0,2.623,0v-15.208a1.31227,1.31227,0,0,0-2.623,0" fill="#ffb819"/>
        <path d="M67.709,131.02873v15.208a1.31227,1.31227,0,0,0,2.623,0v-15.208a1.31227,1.31227,0,0,0-2.623,0" fill="#ffb819"/>
        <path d="M335.35691,20.69835v11.131a1.31227,1.31227,0,0,0,2.623,0v-11.131a1.31227,1.31227,0,0,0-2.623,0" fill="#ffb819"/>
        <path d="M380.46571,135.39233v19.372a1.31228,1.31228,0,0,0,2.623,0v-19.372a1.31227,1.31227,0,0,0-2.623,0" fill="#ffb819"/>
        <path d="M305.20073,19.28163q-.11554,5.86954-.23,11.738a1.31229,1.31229,0,0,0,2.623,0q.11549-5.86949.23-11.738a1.31229,1.31229,0,0,0-2.623,0" fill="#ffb819"/>
        <path d="M291.2837,10.57744q.201,6.27452.402,12.548c.054,1.684,2.677,1.691,2.623,0q-.201-6.27448-.402-12.548c-.054-1.684-2.677-1.691-2.623,0" fill="#fff"/>
        <path d="M320.73933,10.779q-.28651,6.17253-.141,12.348a1.31231,1.31231,0,0,0,2.623,0q-.14552-6.17853.141-12.348c.079-1.687-2.545-1.683-2.623,0" fill="#fff"/>
        <path d="M189.18531,3.09132c-4.554-4.807-11.744-3.045-15.772,1.482-5.323,5.983-6.309,14.303-4.703,21.885,1.396,6.587,4.371,13.889,11.783,15.177,6.693,1.163,12.976-.719,13.863-8.153a50.2595,50.2595,0,0,0,.151-6.21c-.007-1.465.188-3.179-1.051-4.233-1.271-1.082-3.532-.713-5.042-.748q-4.33649-.0975-8.672-.196c-2.423-.055-2.423,3.706,0,3.761q2.892.066,5.781.131c1.706.039,4.128-.322,5.781.131-.914-.25-.396-.697-.565.597a22.13519,22.13519,0,0,0,.014,2.785,22.90286,22.90286,0,0,1-.244,4.403c-.733,3.77-3.751,4.412-7.181,4.261-3.643-.161-6.376-1.527-8.227-4.706-3.232-5.55-4.411-13.488-2.547-19.62,1.545-5.08,8.241-14.133,13.969-8.087,1.669,1.761,4.328-.902,2.662-2.66" fill="#fff"/>
        <path d="M196.75611,2.99773a259.85355,259.85355,0,0,0,.849,29.36c.265,2.858-.179,7.193,3.465,7.787a39.32621,39.32621,0,0,0,6.16.025q3.921-.003,7.841-.006a1.88156,1.88156,0,0,0,0-3.761q-5.88.00453-11.761.01-.84,0-1.68.001c.028-.217.056-.433.084-.65a11.006,11.006,0,0,1-.29-2.839q-.29551-3.105-.497-6.218c-.513-7.893-.569-15.804-.406-23.709.05-2.421-3.715-2.421-3.765,0" fill="#fff"/>
        <path d="M198.63871,24.58134q5.3565.01053,10.692-.428c2.398-.196,2.419-3.959,0-3.761q-5.33849.438-10.692.428a1.88154,1.88154,0,0,0,0,3.761" fill="#fff"/>
        <path d="M198.55151,4.88463q7.3965-.237,14.792-.475c2.416-.078,2.427-3.839,0-3.761q-7.39648.237-14.792.475c-2.417.077-2.427,3.839,0,3.761" fill="#fff"/>
        <path d="M217.94563,4.88463h22.731a1.88154,1.88154,0,0,0,0-3.761h-22.731a1.88154,1.88154,0,0,0,0,3.761" fill="#fff"/>
        <path d="M227.42872,4.37694c.766,11.478.761,22.993,1.687,34.461.194,2.397,3.961,2.417,3.766,0-.927-11.468-.922-22.983-1.688-34.461-.16-2.402-3.927-2.42-3.765,0" fill="#fff"/>
        <path d="M256.40141,38.83833c1.07-12.357,3.864-24.496,7.012-36.47q-1.7205.22353-3.441.449c2.702,5.864,3.965,12.591,5.486,18.83,1.391,5.706,2.505,11.528,4.188,17.158.691,2.314,4.326,1.328,3.63-1-3.619-12.111-4.727-25.329-10.053-36.886-.695-1.508-3.054-1.021-3.441.449-3.234,12.304-6.047,24.773-7.146,37.47-.209,2.411,3.557,2.397,3.765,0" fill="#fff"/>
        <path d="M256.46,26.73872a100.23526,100.23526,0,0,0,12.034,0c2.395-.213,2.417-3.976,0-3.761a100.4511,100.4511,0,0,1-12.034,0c-2.424-.076-2.421,3.685,0,3.761" fill="#fff"/>
        <path d="M326.19581,131.05243a210.37107,210.37107,0,0,0,.822,25.318c.237,2.35.157,4.814,2.918,5.266,3.638.596,7.821.057,11.51.054,2.245-.002,2.248-3.527,0-3.525-2.845.003-6.026.416-8.838.008-2.194-.319-2.014-.828-2.218-3.014q-.225-2.409-.379-4.826c-.414-6.419-.456-12.851-.326-19.281.046-2.269-3.443-2.269-3.489,0" fill="#fff"/>
        <path d="M327.94023,148.93854q4.4025.00751,8.787-.35c2.223-.181,2.243-3.707,0-3.524q-4.38748.357-8.787.35c-2.245-.005-2.249,3.52,0,3.524" fill="#fff"/>
        <path d="M327.8686,132.81973q6.078-.195,12.157-.389c2.239-.071,2.249-3.596,0-3.524l-12.157.389c-2.24.071-2.25,3.596,0,3.524" fill="#fff"/>
        <path d="M213.53782,130.65733a217.422,217.422,0,0,0,.8,25.613c.243,2.48.045,5.387,3.016,5.872,3.757.613,8.047.056,11.855.053,2.245-.002,2.249-3.526,0-3.524-2.994.002-6.133.282-9.113.007-2.178-.2-2.131-.924-2.328-3.006q-.252-2.679-.419-5.365c-.413-6.542-.456-13.098-.322-19.65.046-2.269-3.443-2.269-3.489,0" fill="#fff"/>
        <path d="M102.23562,132.52463h19.265a1.77777,1.77777,0,0,0,0-3.552h-19.265a1.77778,1.77778,0,0,0,0,3.552" fill="#fff"/>
        <path d="M110.11012,131.92534c-.003,9.852-.062,19.706.715,29.534.179,2.264,3.697,2.283,3.516,0-.777-9.828-.718-19.682-.715-29.534a1.75853,1.75853,0,0,0-3.516,0" fill="#fff"/>
        <path d="M90.63891,161.94673c.916-10.578,3.275-20.961,5.937-31.213q-1.608.213-3.214.425c4.352,9.617,5.22,20.724,8.183,30.803.642,2.186,4.037,1.256,3.39-.944-3.058-10.403-4.041-21.718-8.536-31.652-.646-1.426-2.854-.962-3.214.424-2.743,10.564-5.119,21.258-6.062,32.157-.197,2.277,3.32,2.263,3.516,0" fill="#fff"/>
        <path d="M90.52592,151.741a84.02979,84.02979,0,0,0,10.199,0c2.237-.201,2.258-3.754,0-3.552a84.0329,84.0329,0,0,1-10.199,0c-2.263-.071-2.261,3.48,0,3.552" fill="#fff"/>
        <path d="M282.74733,161.00163c.918-10.211,3.363-20.375,5.937-30.276h-3.364c1.775,4.62,2.762,9.662,4.04,14.438,1.415,5.289,2.713,10.629,4.319,15.863.663,2.16,4.032,1.238,3.365-.937-1.607-5.234-2.905-10.574-4.32-15.863-1.277-4.776-2.264-9.818-4.04-14.438-.585-1.525-2.892-1.815-3.364,0-2.656,10.214-5.115,20.679-6.062,31.213-.203,2.258,3.287,2.244,3.489,0" fill="#fff"/>
        <path d="M282.64793,151.13783a77.46323,77.46323,0,0,0,9.393,0c2.218-.2,2.239-3.726,0-3.524a77.87521,77.87521,0,0,1-9.393,0c-2.246-.07-2.244,3.455,0,3.524" fill="#fff"/>
        <path d="M232.73582,131.06363c-.204,9.798.41,19.583.442,29.379a1.745,1.745,0,0,0,3.489,0c-.032-9.796-.646-19.581-.442-29.379.047-2.269-3.442-2.269-3.489,0" fill="#fff"/>
        <path d="M318.37571,131.06363c-.204,9.798.41,19.583.442,29.379a1.745,1.745,0,0,0,3.489,0c-.032-9.796-.646-19.581-.442-29.379.047-2.269-3.442-2.269-3.489,0" fill="#fff"/>
        <path d="M238.63432,130.87784q.591,15.327,2.203,30.582c.236,2.232,3.728,2.256,3.49,0q-1.61252-15.252-2.204-30.582c-.087-2.261-3.577-2.272-3.489,0" fill="#fff"/>
        <path d="M241.62162,132.71443c3.432-.69,10.469-.322,8.646,5.155-1.194,3.584-5.619,4.816-8.78,5.812a1.76279,1.76279,0,0,0,.927,3.398c4.693-.993,13.491-1.335,12.761,5.875-.557,5.51-6.766,7.037-11.285,6.022-2.187-.491-3.122,2.906-.927,3.399,6.754,1.517,15.373-1.526,15.73-9.578.429-9.685-10.1-10.62-17.206-9.116q.46349,1.698.927,3.398c5.205-1.638,11.94-4.529,11.618-11.165-.331-6.838-8.259-7.62-13.339-6.599-2.2.443-1.269,3.841.928,3.399" fill="#fff"/>
        <path d="M259.5532,131.04494a236.47129,236.47129,0,0,0,1.75,29.078c.272,2.222,3.765,2.25,3.49,0a236.47824,236.47824,0,0,1-1.751-29.078,1.745,1.745,0,0,0-3.489,0" fill="#fff"/>
        <path d="M262.14143,132.54823a15.27956,15.27956,0,0,1,6.822-.157c2.495.682,5.241,2.882,4.107,5.82-1.434,3.717-7.905,4.332-11.234,4.283-2.246-.032-2.247,3.492,0,3.525,5.535.08,15.123-1.861,15.004-9.145-.133-8.144-9.778-8.829-15.627-7.725-2.204.417-1.27,3.814.928,3.399" fill="#fff"/>
        <path d="M266.27662,145.29123q4.20447,7.40852,8.537,14.74a1.75026,1.75026,0,0,0,3.013-1.779q-4.33351-7.332-8.537-14.74c-1.117-1.967-4.133-.194-3.013,1.779" fill="#fff"/>
        <path d="M297.5532,131.04494a236.66962,236.66962,0,0,0,1.75,29.078c.272,2.222,3.765,2.25,3.49,0a236.47824,236.47824,0,0,1-1.751-29.078,1.745,1.745,0,0,0-3.489,0" fill="#fff"/>
        <path d="M300.14161,132.54823a15.27956,15.27956,0,0,1,6.822-.157c2.495.682,5.242,2.882,4.107,5.82-1.434,3.717-7.905,4.332-11.234,4.283-2.246-.032-2.247,3.492,0,3.525,5.535.08,15.123-1.861,15.004-9.145-.133-8.144-9.778-8.829-15.627-7.725-2.204.417-1.27,3.814.928,3.399" fill="#fff"/>
        <path d="M304.27681,145.29123q4.20447,7.40852,8.537,14.74a1.75026,1.75026,0,0,0,3.013-1.779q-4.33351-7.332-8.537-14.74c-1.117-1.967-4.133-.194-3.013,1.779" fill="#fff"/>
        <path d="M142.99342,160.48033c-.003-9.598-.075-19.197.124-28.794q-1.6395.447-3.277.896,7.362,14.2755,14.724,28.551c.836,1.62,3.233.787,3.277-.897.256-9.875.124-19.754.312-29.63.043-2.287-3.473-2.287-3.517,0-.187,9.876-.056,19.755-.312,29.63q1.638-.447,3.276-.896-7.362-14.2755-14.724-28.551c-.832-1.615-3.241-.792-3.276.897-.198,9.597-.127,19.196-.123,28.794a1.75854,1.75854,0,0,0,3.516,0" fill="#fff"/>
        <path d="M160.32621,130.81264c2.089,2.789,3.982,5.729,5.878,8.653a40.912,40.912,0,0,0,3.598,5.453,1.7654,1.7654,0,0,0,2.131.277c1.528-.941,2.372-3.732,3.143-5.239,1.567-3.059,3.102-6.148,4.889-9.084,1.189-1.953-1.851-3.739-3.036-1.793-1.526,2.507-2.86,5.129-4.2,7.74-.635,1.235-1.26,2.475-1.903,3.705-.195.373-.43.74-.596,1.126-.188.437-.865.967-.072.479q1.065.138,2.131.277a16.86948,16.86948,0,0,0-1.085-1.691c-.79-1.224-1.577-2.45-2.372-3.671-1.765-2.713-3.53-5.435-5.47-8.025-1.348-1.799-4.403-.032-3.036,1.793" fill="#fff"/>
        <path d="M169.28762,144.85684c-.04,5.264.069,10.526.178,15.789.047,2.282,3.564,2.29,3.516,0-.109-5.263-.217-10.525-.178-15.789a1.75853,1.75853,0,0,0-3.516,0" fill="#fff"/>
        <path d="M195.18481,134.32634c-1.109-7.923-10.304-7.558-12.829-.657-1.676,4.582-1.732,10.212-1.378,15.013.301,4.068.997,10.118,5.008,12.32,5.215,2.862,9.935-2.375,10.057-7.394.056-2.286-3.46-2.285-3.516,0-.076,3.101-3.453,6.444-5.875,3.292-1.778-2.312-2.036-6.072-2.2-8.862a45.06632,45.06632,0,0,1,.456-9.969,15.46642,15.46642,0,0,1,.838-3.455,5.13589,5.13589,0,0,1,1.857-2.418c2.604-1.495,3.897.972,4.191,3.074.316,2.254,3.704,1.295,3.391-.944" fill="#fff"/>
        <path d="M360.10643,131.36754c-3.352-2.993-8.278-3.674-11.936-.756-3.105,2.476-4.966,7.796-1.866,11.046,3.628,3.804,13.158,3.228,13.699,9.465.317,3.642-1.774,6.842-5.57,6.612a7.70177,7.70177,0,0,1-7.188-5.648,1.7471,1.7471,0,0,0-3.365.937c2.726,9.633,17.84,11.812,19.499.364.697-4.812-1.76-8.63-6.157-10.37-3.082-1.221-10.239-2.451-8.707-7.079,1.326-4.003,6.183-4.704,9.124-2.079,1.677,1.497,4.154-.986,2.467-2.492" fill="#fff"/>
      </g>
    </g>
  </g>
</svg>
