<svg xmlns="http://www.w3.org/2000/svg" viewBox="0 0 327.04483 119.69125" preserveAspectRatio="xMidYMid meet" role="img" aria-labelledby="brooklyn-public-library-logo" class="bpl-logo">
  <title id="brooklyn-public-library-logo">Brooklyn Public Library</title>
  <g>
    <path d="M277.59644,75.85114c0-8.96869-.04663-17.901-.04663-26.85583-.017-6.4986,1.19653-19.65149-11.6814-24.62018a21.81927,21.81927,0,0,0-3.50439-.85663,26.03143,26.03143,0,0,0-9.89594.85663,22.69394,22.69394,0,0,0-6.02319,3.27191c-.433.30927-1.28046,1.0318-1.83875,1.52777a37.47788,37.47788,0,0,0-3.353,3.46112c-.02594,0,.27045-7.03046.3042-8.4165H193.82452c-.10327.22656-6.66541,24.57306-7.2738,26.68219-.51379-2.001-7.57129-25.97217-7.74762-26.68219H153.64917V0H128.18378V24.45544c-.02649.02-27.16168,0-27.32391,0-.0473.04736-12.67511,10.11981-13.12128,10.4646,0-12.65485.00366-34.70453.00366-34.88544C79.3844.03461,70.97009,0,62.61224,0c0,4.62018.00281,9.45264.00281,14.07281a17.4946,17.4946,0,0,0-5.506-7.92957c-.2652-.21936-.9137-.769-1.42975-1.11542-3.79242-2.54517-5.283-3.0116-9.71423-4.10675A35.01671,35.01671,0,0,0,42.053.38934c-.71356-.0672-3.53076-.21863-4.04956-.23358C35.3078.09973,31.228.07788,29.28131.07788H0q0,37.9996.04706,75.9696c.71625,0,34.15833-.14117,34.76019-.14117,1.34583,0,2.30548-.06006,3.59326-.06006a54.6383,54.6383,0,0,0,8.57489-.91339,22.54169,22.54169,0,0,0,9.10577-4.21826c5.63794-4.78613,6.30719-8.2135,6.52881-8.57855,0,.55774-.01178,13.16187-.01178,13.608H87.57635V61.40594c.34473-.28387,2.78729-2.31189,2.83923-2.31189.9986,1.28735,12.89819,15.79822,13.608,16.65h49.62561V29.7486c.026,0,19.35626,42.22418,19.61987,42.87311-.63031,1.27527-18.37384,38.24762-18.37384,38.27362h27.074c.36505-.877,35.61206-80.46533,35.61206-80.51721.02594,0-.02032,18.04932-.02032,45.473h25.57416V53.07159c-.00031-5.16626-.94342-9.8111,5.23151-9.63306,2.31653.06677,3.61444,2.60858,3.71124,3.97491V75.85114ZM37.06512,55.63287c-2.63751,2.79761-7.71985,2.22418-11.9519,2.22418V46.12823c7.69293,0,8.72925.01392,9.91711.52051a5.16233,5.16233,0,0,1,3.27869,4.8808C38.309,53.882,37.78406,54.8703,37.06512,55.63287Zm0-28.06781c-2.63751,2.79761-7.71985,2.22424-11.9519,2.22424V18.06042c7.69293,0,8.72925.01392,9.91711.52057A5.16225,5.16225,0,0,1,38.309,23.46173C38.309,25.81421,37.78406,26.80255,37.06512,27.56506ZM62.5506,48.67c-.52057-2.76483-4.88757-7.07776-7.42255-8.7002a28.131,28.131,0,0,0-2.65674-1.48041c-.36969-.18365-1.21112-.52161-1.23706-.54761a21.83807,21.83807,0,0,0,8.86243-6.26654,12.43662,12.43662,0,0,0,2.48151-4.3197C62.57819,34.28577,62.57654,48.67,62.5506,48.67Zm65.59912,21.21313c-.026,0-20.48358-26.8645-20.50952-26.8645.71655-.56787,20.48352-15.9624,20.50952-15.9624Z"/>
    <g>
      <path d="M143.024,91.46285a9.61468,9.61468,0,0,1,4.5168.77876c.23875.12058.78147.36883,1.01239.46726v6.60756c-.05192,0-2.5023-2.40658-5.328-1.41961A4.67767,4.67767,0,0,0,141.155,100.185a6.19248,6.19248,0,0,0-.23363,1.9469c.16765,1.822,2.03343,3.91759,5.29556,3.03716a6.237,6.237,0,0,0,2.33628-1.55752v6.61945a15.868,15.868,0,0,1-2.64778,1.01239,11.66444,11.66444,0,0,1-8.177-1.47964c-2.85869-1.68623-5.44682-6.50522-3.81592-11.52564a10.1947,10.1947,0,0,1,5.60707-5.99645A15.99213,15.99213,0,0,1,143.024,91.46285Z"/>
      <path d="M73.24716,92.08586H80.5675v8.56635c0,1.54584-.10435,3.15553.54513,4.04955a2.89814,2.89814,0,0,0,2.492.77876,3.40355,3.40355,0,0,0,1.63539-.623c.762-.77714.70088-2.43992.70088-3.97167v-8.8H93.1834c0,.64626.15251,11.96261-.23363,13.784-.35747,1.99124-2.23677,4.10038-5.21769,5.06194a12.70761,12.70761,0,0,1-2.46769.44454,22.57982,22.57982,0,0,1-3.92084-.027,11.6351,11.6351,0,0,1-4.732-1.325,7.20779,7.20779,0,0,1-2.82571-3.40707,20.3692,20.3692,0,0,1-.53864-5.65358Zm12.69378,8.8v-8.8H93.1834c0,.64626.15251,11.96261-.23363,13.784"/>
      <path d="M72.29858,90.56158a7.90864,7.90864,0,0,0-6.89526-6.60406c-2.2038-.32446-13.69373-.15088-13.87787-.15088v27.15845h7.76733V102.243c5.78308.02,9.6283-.16681,11.8371-3.738a10.61053,10.61053,0,0,0,1.08759-3.01471c.06085-.32452.19672-1.08838.20685-1.33179A23.295,23.295,0,0,0,72.29858,90.56158Zm-8.39935,4.36755c-1.085.97345-2.94006.77063-4.59253.77063V90.13239c3.06134.041,3.6272.2865,4.07538.51764a2.551,2.551,0,0,1,1.04443,2.07867C64.40741,94.02686,64.22369,94.56409,63.89923,94.92914Z"/>
      <path d="M115.86041,98.81616a9.56369,9.56369,0,0,0-6.36792-6.9223,8.67808,8.67808,0,0,0-7.82062,1.28223V81.02747H94.42944v29.82648h7.24243v-1.246a5.684,5.684,0,0,0,2.95929,1.63544,10.30944,10.30944,0,0,0,5.49677-.42133,9.96332,9.96332,0,0,0,6.02887-8.45654A15.003,15.003,0,0,0,115.86041,98.81616Zm-10.80255,6.25153a3.61511,3.61511,0,1,1,3.61511-3.61511A3.6151,3.6151,0,0,1,105.05786,105.06769Z"/>
      <circle cx="129.02905" cy="85.72869" r="4.03423"/>
      <path d="M116.93191,81.05749h7.22989v29.8h-7.22989S116.90149,81.02707,116.93191,81.05749Z"/>
      <path d="M125.36847,92.11019h7.22989v18.74728h-7.22989S125.338,92.07977,125.36847,92.11019Z"/>
    </g>
    <g>
      <circle cx="223.56177" cy="85.72869" r="4.03423"/>
      <path d="M219.9012,92.11019h7.22989v18.74728H219.9012S219.87078,92.07977,219.9012,92.11019Z"/>
      <path d="M249.87195,98.87024a9.56377,9.56377,0,0,0-6.368-6.9223,8.67824,8.67824,0,0,0-7.82062,1.28223V81.08154h-7.24243V110.908h7.24243v-1.246a5.68419,5.68419,0,0,0,2.95929,1.63544,10.30938,10.30938,0,0,0,5.49677-.42133,9.96321,9.96321,0,0,0,6.02887-8.45654A15.00335,15.00335,0,0,0,249.87195,98.87024Zm-10.80261,6.25153a3.61511,3.61511,0,1,1,3.61511-3.61511A3.61509,3.61509,0,0,1,239.06934,105.12177Z"/>
      <path d="M279.09235,92.093c0,.3374.00116.7254.00116,1.06281-.23114-.13629-.5755-.42712-.91382-.61975a6.26612,6.26612,0,0,0-2.29163-.86194c-5.62775-.58813-8.08166,2.03821-9.53168,3.93439a9.06912,9.06912,0,0,0-.97345,2.12939h-.09375V92.093c-5.36163-.32043-6.97272,2.19727-7.0246,2.19727V92.093H250.96v18.76093c.46674,0,6.6568-.00488,7.26733-.00488.15887-5.70886-.38867-9.52155.7876-11.2149a3.86629,3.86629,0,0,1,2.45728-1.31824,7.01247,7.01247,0,0,1,1.89282.06085,10.6546,10.6546,0,0,1,1.53479.56213,24.3386,24.3386,0,0,0-.23364,3.50446c.5376,4.52545,2.694,6.92523,6.07434,8.41058,2.55164,1.05981,7.01831.69019,8.24023-1.1507h.16223c0,.38928.00812,1.00385.00812,1.1507h7.24243V92.093ZM275.736,105.12177a3.61511,3.61511,0,1,1,3.61511-3.61511A3.6151,3.6151,0,0,1,275.736,105.12177Z"/>
      <path d="M202.876,83.72771v27.12138h15.98079v-6.7195l-8.16616.027V83.72771S202.84894,83.70067,202.876,83.72771Z"/>
      <path d="M302.05963,99.12714c-.50808-.16536-1.39024-.62378-1.9469-.73685a6.49942,6.49942,0,0,0-1.736-.06084,3.7376,3.7376,0,0,0-2.61411,1.31821c-1.17625,1.6934-.58813,5.4958-.747,11.20467h-7.30791V92.093h7.30453v2.21079c.05192,0,1.6934-2.21079,7.02465-2.21079,0,.359.03624,5.21564.03624,5.64153m-14.36541,13.11777V92.093h7.24246"/>
      <path d="M301.24843,92.093l9.19369,15.86274-6.27334,11.73547h8.16616L327.04483,92.093h-8.20672l-4.38052,8.643-4.51572-8.643S301.26195,92.07952,301.24843,92.093Z"/>
    </g>
  </g>
</svg>
