<svg xmlns="http://www.w3.org/2000/svg" viewBox="0 0 348.91231 56.2293" preserveAspectRatio="xMidYMid meet" role="img" aria-labelledby="queens-public-library-logo" class="qpl-logo">
  <title id="queens-public-library-logo">Queens Public Library</title>
  <g>
    <path d="M0,26.49057c1.49666-3.08238,3.01816-6.153,4.484-9.25,2.06025-4.35277,4.0792-8.7251,6.17606-13.21816A14.41515,14.41515,0,0,1,17.56649,9.353a82.50994,82.50994,0,0,1,4.58209,8.66152,2.17665,2.17665,0,0,1-.07171,1.64623q-5.11515,11.12359-10.3165,22.20751c-.06017.12894-.202.21979-.4099.43753C9.4837,35.73977,6.29994,30.25064,0,27.1289Z"/>
    <path d="M65.74768,0c-3.55548,3.32517-8.00921,4.1021-12.61508,4.44287-4.17338.30878-8.37026.43045-12.51559.95818-6.80394.86619-11.66163,4.70487-15.02845,10.56372-.36307.6318-.7152,1.2699-1.13137,2.00993-.27153-2.287,1.14891-6.85226,2.95926-9.74995a17.08409,17.08409,0,0,1,11.4473-7.886A9.6356,9.6356,0,0,0,39.89544,0h6.70243C51.20656,1.00286,55.83973,1.96445,60.58,1.45885A22.64953,22.64953,0,0,0,65.10936,0Z"/>
    <path d="M43.81555,19.51076c-3.68157,7.89546-7.1713,15.39451-10.68864,22.8806a2.04684,2.04684,0,0,1-.92534.99258c-5.68737,2.30062-11.46781,3.01-17.37468.84063a17.57242,17.57242,0,0,1-1.58386-.78342L23.96991,20.42367C30.65945,23.33193,37.10937,22.42024,43.81555,19.51076Z"/>
    <path d="M82.20131,46.12961c5.22194,4.68527,10.03655,9.73353,18.033,8.43809a6.05438,6.05438,0,0,1-4.25663,1.609c-6.02975.45964-10.90318-2.1459-15.38079-5.80024a5.68647,5.68647,0,0,1-.71688-.63185,12.34735,12.34735,0,0,0-7.09828-3.7766C64.0003,44.00487,59.3409,37.01122,60.358,27.82271c.881-7.95866,7.91789-14.08833,16.27082-14.17311C85.53953,13.55916,91.7,18.16,93.4067,26.18c1.81405,8.52435-2.32007,16.22568-10.458,19.49174A6.8037,6.8037,0,0,0,82.20131,46.12961Zm6.992-14.72709a20.35034,20.35034,0,0,0-2.72053-10.19425,10.76611,10.76611,0,0,0-10.44706-5.9561c-4.44313.18346-7.83555,2.28057-9.46349,6.38134C63.82243,28.535,64.514,35.26987,69.18713,41.1398a10.7438,10.7438,0,0,0,18.30012-2.7101A16.93759,16.93759,0,0,0,89.1933,31.40252Z"/>
    <path d="M255.24606,45.82116l0-1.84891q0-12.67391-.00031-25.34783c-.00027-2.65421-.002-2.65421-2.88118-3.70931l6.75976-2.81095V26.774c1.219-.62278,2.24813-1.25856,3.35566-1.69582,5.50592-2.17374,10.65773.28025,12.2778,5.97467,1.311,4.60807.50623,8.889-2.96356,12.34371-2.97106,2.95811-6.77453,2.91163-10.60473,2.40331a14.7435,14.7435,0,0,1-1.69791-.4087c-1.36133-.34943-2.80152-1.3489-3.83875.89938Zm3.88464-10.994v4.62579c0,.05317-.00051.10635.00031.15951a5.21377,5.21377,0,0,0,3.14642,5.08031A5.838,5.838,0,0,0,268.64888,43.01c2.96713-3.406,3.27854-10.753.60971-14.38425a6.465,6.465,0,0,0-8.45614-1.43163,3.276,3.276,0,0,0-1.7021,3.1696C259.239,31.83944,259.1305,33.33839,259.1307,34.82715Z"/>
    <path d="M241.41,35.339c-.60985,2.44955-1.16153,4.91543-1.84349,7.34473-.96924,3.45271-.02992,2.83233-3.69033,2.8547-6.48659.03964-12.97362.01123-19.46044.01081a4.13828,4.13828,0,0,1-1.10994-.02945,2.79631,2.79631,0,0,1-.77212-.5593c.25357-.18766.48745-.5.76382-.54366,2.73553-.43247,2.78091-.46588,2.78142-3.17184q.00219-11.6444-.00136-23.28879c-.00144-2.32247-.281-2.62267-2.52446-3.04381-.33909-.06365-.6296-.3861-.94257-.58884.31055-.18935.61949-.54037.93187-.54346,3.82359-.0378,7.64769-.02459,11.47167-.02459l.29974.38987c-.30251.258-.595.72683-.909.7417-3.40512.1613-3.56,1.76834-3.55171,4.26589.02267,6.859.00781,13.718.00789,20.57707,0,.319-.00859.6384.00306.957.112,3.05924.7982,3.44623,3.83781,3.76055,5.70257.58969,9.625-1.65606,12.15017-6.69457A25.09379,25.09379,0,0,1,240.74736,34.95Z"/>
    <path d="M166.4984,26.69292l6.15672-2.35543v3.4074c.84864-.74657,1.44711-1.31959,2.093-1.83293a6.63346,6.63346,0,0,1,7.47032-.83361,6.204,6.204,0,0,1,3.87183,6.20143c-.10362,3.34731-.01745,6.70031-.02649,10.0508-.00434,1.609.19036,3.0338,2.287,3.119.217.00882.42034.35636.63.54673-.26374.1827-.52509.52-.79162.52413q-3.908.06073-7.81717.00433c-.28842-.004-.57264-.30843-.8588-.47353.25032-.20941.49858-.59653.75131-.5995,1.69807-.02,1.98813-1.09828,1.98554-2.46132-.00655-3.45688.022-6.914-.00931-10.3706-.02823-3.11585-1.78174-5.02736-4.546-5.04114a5.03522,5.03522,0,0,0-5.03255,5.20582q-.0038,4.946.00064,9.892c.00152,1.39339.0442,2.74871,1.99339,2.779.20254.00315.39938.3715.59888.57039-.22.17119-.438.48825-.66032.49131-2.6054.03592-5.21171.041-7.81693.0001-.25392-.004-.5022-.36784-.7531-.56465.22745-.17105.45716-.49291.682-.48957,2.00876.02988,2.14956-1.30039,2.14144-2.802-.01642-3.03134.01693-6.063-.01221-9.09419-.02082-2.16808.64842-4.63825-2.65447-5.51092Z"/>
    <path d="M96.237,25.02159h6.6184c0,1.69023,0,3.37044,0,5.05064.00011,3.55987-.01382,7.11982.00568,10.67959.01172,2.13973.73006,2.99926,2.76532,3.42752,3.78767.797,6.6845-1.46636,6.73744-5.33959.04936-3.61234-.046-7.22727.042-10.83814.03237-1.32682-.35328-1.9942-1.7095-2.079a3.35728,3.35728,0,0,1-1.045-.46254l.1228-.40965h6.41086c.02277.48428.07091,1.04114.07169,1.59806q.00939,6.69467.00482,13.38937c.0024,2.46867.18112,2.70194,2.8215,3.38829-2.10754,1.47538-4.40008,1.70569-6.63094,2.72516l-.12788-2.919a16.755,16.755,0,0,1-3.29847,1.95783,15.0534,15.0534,0,0,1-4.8.7858c-3.55514-.07732-5.19553-1.8504-5.24181-5.42015-.05233-4.03739-.06847-8.07713.01527-12.11345.03232-1.55721-.19426-2.62048-2.06447-2.54072-.26931.01148-.55171-.28329-.828-.43633Z"/>
    <path d="M147.7882,31.57949c-1.21037,4.464.6098,8.76367,4.26942,10.45559,3.85112,1.78045,7.895.55479,10.42644-3.12533A6.39091,6.39091,0,0,1,163.747,37.94a9.85267,9.85267,0,0,1-9.59,8.1037c-5.2424.05977-9.05985-2.797-10.163-7.60526-1.40616-6.12941,1.565-11.96436,6.94706-13.64294,5.23008-1.63119,10.66575.83693,12.29717,5.59236a11.532,11.532,0,0,1,.2639,1.19166Zm.35557-1.22863h9.46777c-.32652-3.14851-1.49615-4.64518-3.64817-4.83657C151.22341,25.27061,149.23833,26.86622,148.14377,30.35086Z"/>
    <path d="M141.1004,31.59136c-4.8329,0-9.56125.04842-14.28748-.03079-1.34176-.02249-1.71311.42047-1.748,1.70962-.15965,5.89716,3.22072,9.70591,8.6122,9.50959a7.74743,7.74743,0,0,0,6.35475-3.69112,1.98108,1.98108,0,0,1,1.17143-.78314c-1.0269,3.6717-3.05015,6.48809-6.86384,7.38924-4.01762.94934-7.763.28189-10.5924-3.01087a11.88843,11.88843,0,0,1-1.16436-12.7577,9.84629,9.84629,0,0,1,9.78308-5.563c4.26489.23353,7.35718,2.486,8.52905,6.04917A8.75828,8.75828,0,0,1,141.1004,31.59136Zm-15.24021-1.359h9.41106c-.42695-3.12332-1.56368-4.54087-3.70682-4.72081C128.8324,25.28221,126.77791,26.96819,125.86019,30.2324Z"/>
    <path d="M301.47714,43.10215a40.51219,40.51219,0,0,1-3.84305,2.40726,4.90945,4.90945,0,0,1-6.38947-1.45381,4.72078,4.72078,0,0,1,1.40039-6.2488,38.68021,38.68021,0,0,1,7.01488-3.61806c1.35-.57333,2.10784-1.153,1.89172-2.72669a24.70142,24.70142,0,0,1-.03236-3.18357c-.00849-1.39018-.75768-2.39-2.07828-2.31706a10.568,10.568,0,0,0-4.16313,1.12652c-.51258.26466-.63241,1.54392-.69252,2.37873-.13116,1.82134-.7609,2.71364-2.18161,2.76035a1.57722,1.57722,0,0,1-1.71722-2.15544,5.15819,5.15819,0,0,1,1.31363-2.11509,13.70171,13.70171,0,0,1,8.3075-3.61175c2.8429-.22861,4.70244,1.17781,4.85226,4.00573.22443,4.2366.14141,8.48949.18849,12.73546a6.17717,6.17717,0,0,0,.03364,1.42791,6.67809,6.67809,0,0,0,.66085,1.32461,14.30109,14.30109,0,0,0,1.24026-.7647,8.38073,8.38073,0,0,0,.88477-.948c.17382,2.11305-.59658,3.40784-2.01959,3.79138C304.009,46.49372,302.60549,45.65894,301.47714,43.10215Zm.045-8.145-.42738-.44618c-2.03321,1.15778-4.14293,2.20276-6.07318,3.51227-1.326.89961-1.29608,2.32348-.54878,3.695a3.401,3.401,0,0,0,3.78958,1.67216c1.63548-.30878,3.226-1.51341,3.248-2.55951C301.5514,38.87372,301.52214,36.91512,301.52214,34.95714Z"/>
    <path d="M336.15173,25.27575a3.1349,3.1349,0,0,1-.80348.56654,10.94844,10.94844,0,0,1-1.56632.27237c-1.36046.20652-1.65114.98656-1.14493,2.16634q1.66287,3.87532,3.34568,7.742c.58873,1.36121,1.17734,2.72244,1.811,4.18769.18662-.16919.37624-.264.44391-.41379,1.63665-3.62285,3.30337-7.23307,4.8695-10.88638.89469-2.08708.52725-2.63105-1.67986-2.96846-.30623-.04682-.61179-.09806-1.42092-.22819.65442-.42509.94911-.7805,1.25055-.78632,2.38566-.04611,4.77261-.02564,7.65544-.02564-.535.53793-.74481.94281-.99579.9702-1.79039.19534-2.61358,1.39537-3.28132,2.87764Q339.73571,39.626,334.7698,50.47229a17.98538,17.98538,0,0,1-2.05029,3.57553,4.78947,4.78947,0,0,1-2.30077,1.546,2.39413,2.39413,0,0,1-2.09428-.495,2.27231,2.27231,0,0,1-.12666-2.13795,2.70324,2.70324,0,0,1,2.02949-1.10176c2.42076.10485,2.50718-.02248,3.66072-2.04417a8.452,8.452,0,0,0,.07827-9.00321c-2.22838-4.14162-3.91092-8.578-5.80447-12.89791-.39019-.89014-.68364-1.79219-1.87536-1.90511-.19209-.0182-.34823-.41593-.521-.63821.23033-.15545.45942-.44409.6912-.44625,3.17839-.02982,6.35717-.02011,9.53583-.02011Z"/>
    <path d="M192.07385,38.83c.20413.49679.38323,1.00575.6175,1.48791a18.37264,18.37264,0,0,0,1.66289,3.21874,4.06161,4.06161,0,0,0,4.60149,1.3062,3.46,3.46,0,0,0,2.59359-3.08579,3.74555,3.74555,0,0,0-1.80139-4.09468c-1.70627-1.06662-3.5797-1.88585-5.20258-3.05875A7.66018,7.66018,0,0,1,191.8989,31.586c-1.25848-3.11217.60632-6.09207,4.047-6.98532,2.72736-.70807,5.25.10986,7.75257,1.01249a1.254,1.254,0,0,1,.617.93865c.06789,1.42224.02893,2.84958.02893,4.27506l-.50647.20275a11.0303,11.0303,0,0,1-.70544-1.324c-1.05914-2.82878-2.8909-4.29868-5.31172-4.26577a2.93521,2.93521,0,0,0-2.9747,2.17529,2.48807,2.48807,0,0,0,1.13194,3.16676c1.66435,1.02461,3.45647,1.83909,5.15473,2.81194,1.82163,1.04352,3.52858,2.2621,4.0475,4.467.87745,3.7284-1.19028,6.89456-5.17957,7.74617a11.25512,11.25512,0,0,1-7.46082-.79325,2.13165,2.13165,0,0,1-.98885-1.48113c-.13307-1.50636-.04666-3.03212-.04666-4.55025Z"/>
    <path d="M311.36747,26.65178l5.77785-2.48591.138,2.97265c.92178-.87531,1.6655-1.67658,2.5073-2.3564a3.00026,3.00026,0,0,1,3.41739-.48645,1.95823,1.95823,0,0,1,1.09514,2.64017c-.44027,1.21942-1.39829,1.29451-2.481,1.02669a7.87414,7.87414,0,0,0-2.2772-.50333,2.70746,2.70746,0,0,0-2.29878,2.77409c-.00968,3.8779.01418,7.756-.01208,11.6337-.0104,1.535.37718,2.61871,2.2044,2.578.2832-.0063.57393.32547.86118.50091-.305.20056-.60706.56965-.91557.57515-2.60218.04639-5.20573.04128-7.80825.00566-.29709-.00406-.59033-.29092-.88536-.44667.29283-.22355.58308-.63479.87893-.63886,1.4472-.0199,1.82594-.95834,1.83611-2.10626.03713-4.19631.13891-8.39946-.07436-12.58523C313.27952,28.73558,312.115,27.7781,311.36747,26.65178Z"/>
    <path d="M277.56709,26.60843l5.65841-2.41289.18831,2.65739c.69478-.596,1.35169-1.19476,2.04573-1.74684,1.07455-.85473,2.21272-1.49305,3.65852-.89859a2.10742,2.10742,0,0,1,1.26956,2.84695c-.52651,1.16484-1.49359,1.16291-2.56677.8679a4.94,4.94,0,0,0-2.27661-.42023,2.58242,2.58242,0,0,0-2.17886,2.71682c.06686,3.88161.04527,7.76535.01044,11.6478-.01387,1.54645.36282,2.61656,2.196,2.58582.29394-.00493.59481.40293.89249.62-.29325.15821-.58466.44968-.88006.45378q-3.90859.0542-7.81814.00166c-.30389-.004-.60426-.2784-.90626-.42744.28624-.22979.566-.64751.85984-.65759,1.4539-.04987,1.76847-.98215,1.77315-2.149.01656-4.14863.12463-8.303-.07434-12.4421C279.36883,28.81814,278.29843,27.8335,277.56709,26.60843Z"/>
    <path d="M242.19666,26.66367l6.42587-2.60056c0,2.00091,0,3.73488,0,5.46885.00014,4.09455-.01025,8.18916.00649,12.28364.00547,1.34019.13749,2.61943,1.97484,2.64812.20663.00323.4077.36206.61135.556-.21718.1732-.43234.49406-.65187.49707q-3.90757.05353-7.816.00247c-.22842-.003-.45272-.31863-.679-.48906.20483-.19616.41072-.56323.61433-.562,2.00235.01221,2.13984-1.30638,2.12868-2.8144-.02359-3.19039.00366-6.38112-.011-9.57162-.00972-2.1148.58384-4.53939-2.81208-5.02354Z"/>
    <path d="M46.37264,15.12826a29.69948,29.69948,0,0,1-15.31716,3.65947c.43314-2.19144.66937-2.34242,2.72338-2.21167A36.28141,36.28141,0,0,0,46.37264,15.12826Z"/>
    <path d="M36.56624,14.42692c.32372-1.756,1.094-2.48307,2.9349-2.26912a31.53313,31.53313,0,0,0,12.7981-1.50445A29.44644,29.44644,0,0,1,36.56624,14.42692Z"/>
    <path d="M248.89972,14.80369a2.52314,2.52314,0,0,1-2.48752,2.39652,2.68436,2.68436,0,0,1-2.46387-2.62976,2.47893,2.47893,0,1,1,4.9514.23324Z"/>
  </g>
</svg>
